<svg width="76" height="64" viewBox="0 0 76 64" fill="none" xmlns="http://www.w3.org/2000/svg">
<mask id="mask0_113_2463" style="mask-type:luminance" maskUnits="userSpaceOnUse" x="0" y="0" width="37" height="64">
<path d="M0 0H36.7824V63.0833H0V0Z" fill="white"/>
</mask>
<g mask="url(#mask0_113_2463)">
<path fill-rule="evenodd" clip-rule="evenodd" d="M10.7768 5.81971C10.8548 5.78867 10.9411 5.75458 11.0343 5.7181C11.1294 5.68241 11.2314 5.64434 11.3388 5.60401C11.5495 5.52177 11.7816 5.43143 12.0229 5.33724C12.2579 5.24094 12.502 5.14171 12.7433 5.04315C12.9887 4.94962 13.2319 4.86008 13.4545 4.7712C13.2214 4.82586 12.9717 4.89033 12.7175 4.9613C12.4711 5.0385 12.2232 5.1246 11.9813 5.21149C11.5016 5.38765 11.0408 5.56289 10.7364 5.71611C10.6624 5.17315 11.0739 4.7123 11.6741 4.47485C11.9706 4.35267 12.3401 4.3085 12.7187 4.33131C13.099 4.35533 13.4965 4.45429 13.884 4.63894C13.7732 4.8244 13.6503 4.99274 13.5182 5.14436C13.387 5.29678 13.2417 5.42838 13.107 5.55679C12.83 5.80698 12.5282 5.98925 12.2309 6.09948C11.6306 6.31359 11.0776 6.26968 10.7768 5.81971ZM8.27373 9.68915C8.60943 9.51153 9.07243 9.24728 9.55594 8.9626C9.67459 8.88964 9.80296 8.82065 9.93186 8.75154C10.059 8.68216 10.187 8.61199 10.3142 8.54208C10.5666 8.40239 10.8119 8.26403 11.0378 8.13204C10.554 8.32532 9.99697 8.57086 9.4879 8.83034C8.99493 9.0991 8.53619 9.37303 8.21833 9.58329C8.14003 9.29264 8.19037 9.00253 8.33738 8.73987C8.48439 8.47774 8.72288 8.24028 9.05046 8.075C9.37191 7.90586 9.75608 7.79337 10.171 7.76087C10.5875 7.72903 11.0272 7.77281 11.4868 7.92417C11.1249 8.80275 10.5038 9.42145 9.91108 9.76835C9.3056 10.103 8.66442 10.1274 8.27373 9.68915ZM6.28296 14.071C6.44848 13.9461 6.64476 13.7929 6.85849 13.6221C7.07501 13.4526 7.29539 13.261 7.55199 13.076C7.79781 12.8887 8.05295 12.6947 8.30502 12.503C8.55616 12.3133 8.7836 12.1198 9.02396 11.9515C8.76137 12.0845 8.51156 12.2486 8.2467 12.4174C7.9841 12.5869 7.71831 12.7665 7.46211 12.9464C7.33534 13.0373 7.20497 13.1252 7.08979 13.2169C6.97527 13.3095 6.86421 13.3995 6.75835 13.4852C6.54729 13.6598 6.3582 13.8231 6.204 13.9632C6.06964 13.6618 6.07443 13.3379 6.18815 13.0282C6.21731 12.951 6.25034 12.8736 6.29495 12.7998C6.34075 12.7264 6.39309 12.6547 6.45114 12.5853C6.56739 12.4456 6.70695 12.3149 6.86581 12.1966C7.18447 11.9608 7.57556 11.7745 8.02046 11.6753C8.47534 11.5802 8.97323 11.5674 9.48643 11.6582C9.41759 11.908 9.32198 12.1384 9.22357 12.3583C9.13049 12.5807 9.02103 12.7867 8.89879 12.9752C8.6571 13.3526 8.34923 13.6552 8.06174 13.8902C7.4685 14.3507 6.78099 14.4833 6.28296 14.071ZM4.92977 18.9284C5.08571 18.7663 5.26933 18.5685 5.46828 18.3492C5.56921 18.2403 5.66802 18.1242 5.78014 18.0075C5.8928 17.8915 6.00905 17.7712 6.12756 17.6494C6.60109 17.163 7.06822 16.6444 7.5223 16.2052C7.00736 16.5757 6.49336 17.0533 6.00612 17.5257C5.50676 17.9947 5.10848 18.4753 4.82418 18.8283C4.6271 18.5258 4.57543 18.1754 4.64308 17.8224C4.7295 17.4734 4.93803 17.1231 5.23698 16.8162C5.38652 16.6626 5.55896 16.5199 5.75045 16.3934C5.94087 16.2662 6.16858 16.1602 6.40121 16.0722C6.8714 15.8965 7.40165 15.8034 7.96559 15.8201C7.90487 16.3767 7.73243 16.8733 7.55053 17.3202C7.45292 17.5416 7.3384 17.7464 7.2111 17.9331C7.08712 18.12 6.93599 18.2853 6.80296 18.4354C6.24901 19.0269 5.53499 19.2872 4.92977 18.9284ZM4.35025 24.2001C4.62896 23.7998 4.97265 23.2256 5.40183 22.6263C5.6041 22.3295 5.81397 22.0212 6.02157 21.7163C6.11864 21.5654 6.23249 21.4181 6.33729 21.2733C6.44142 21.129 6.54356 20.9875 6.64263 20.8505C6.41146 21.0925 6.15739 21.3594 5.92356 21.6414C5.69598 21.9243 5.46841 22.2202 5.25149 22.5135C5.14376 22.6624 5.0379 22.8083 4.93537 22.9498C4.83217 23.0934 4.73536 23.2342 4.65426 23.3703C4.48568 23.6431 4.3372 23.8955 4.21856 24.1098C3.95636 23.8215 3.83305 23.456 3.85023 23.067C3.88139 22.6795 4.04079 22.2682 4.30524 21.889C4.43907 21.6997 4.59221 21.5169 4.78143 21.3497C4.97398 21.183 5.1893 21.0304 5.42447 20.897C5.89466 20.6302 6.44342 20.4424 7.04771 20.3664C7.06289 20.6674 7.05037 20.9576 7.01389 21.2349C6.99564 21.3737 6.97141 21.5092 6.94158 21.6414C6.91868 21.7745 6.89258 21.9048 6.85995 22.0309C6.73238 22.5351 6.51267 22.9817 6.25633 23.3459C5.77149 24.0725 5.05774 24.4766 4.35025 24.2001ZM4.66385 29.7754C4.77557 29.5383 4.90487 29.2512 5.04389 28.9357C5.11234 28.7789 5.18424 28.614 5.25868 28.4435C5.29517 28.359 5.33232 28.2732 5.37001 28.1862C5.41142 28.0991 5.45336 28.011 5.49584 27.9222C5.66016 27.5724 5.83061 27.2093 5.99906 26.8503C6.03981 26.762 6.08029 26.674 6.12064 26.5865C6.16139 26.4992 6.20826 26.4121 6.25074 26.3265C6.33583 26.1559 6.41945 25.9884 6.50041 25.8262C6.39788 25.9744 6.29335 26.1301 6.18802 26.2913C6.13568 26.3725 6.08282 26.4543 6.02955 26.537C5.97909 26.6199 5.93221 26.7037 5.88334 26.7885C5.69013 27.1277 5.49877 27.4811 5.3186 27.8306C5.13085 28.1808 4.98477 28.5238 4.85094 28.8431C4.71725 29.1624 4.60193 29.4573 4.51244 29.7056C4.185 29.4478 4.00004 29.0809 3.94531 28.6657C3.93159 28.562 3.926 28.4552 3.9284 28.3464C3.93559 28.2371 3.9521 28.1258 3.97567 28.0134C4.02321 27.7888 4.10191 27.5603 4.20977 27.3356C4.31763 27.1108 4.45465 26.8898 4.61884 26.6798C4.78809 26.4695 4.99382 26.2695 5.21833 26.0874C5.67015 25.7225 6.21918 25.4285 6.8465 25.2437C6.98965 25.8757 6.97873 26.4814 6.94238 27.0359C6.89151 27.5908 6.73065 28.1011 6.54489 28.5284C6.14913 29.3813 5.45922 29.9396 4.66385 29.7754ZM6.05592 35.5084C6.1237 35.2387 6.1992 34.9133 6.27857 34.5575C6.36206 34.1998 6.47179 33.8044 6.57086 33.4038C6.62066 33.2045 6.67153 33.0016 6.72266 32.7971C6.77286 32.5946 6.83931 32.3878 6.89511 32.1863C7.01122 31.7818 7.12042 31.3889 7.21856 31.0239C7.06609 31.369 6.91308 31.7472 6.76341 32.1409C6.68871 32.3378 6.6152 32.5385 6.54343 32.7404C6.48057 32.94 6.42065 33.1407 6.36299 33.3401C6.24754 33.7389 6.14274 34.1323 6.05366 34.4967C5.97989 34.856 5.92143 35.1864 5.87961 35.4638C5.68014 35.3612 5.51236 35.223 5.376 35.0573C5.30782 34.9744 5.24763 34.8849 5.19543 34.7894C5.14629 34.6929 5.10861 34.5893 5.07718 34.482C4.95481 34.0507 4.95348 33.5462 5.09276 33.0333C5.24683 32.5159 5.52674 31.9947 5.92409 31.5312C6.11931 31.3 6.3566 31.0802 6.62159 30.8805C6.88552 30.681 7.17621 30.5019 7.49207 30.3478C7.71991 30.9892 7.88889 31.6071 7.91433 32.2027C7.91939 32.3521 7.92777 32.4968 7.9311 32.6387C7.93323 32.781 7.92857 32.9208 7.91765 33.0578C7.89555 33.3317 7.84828 33.594 7.77837 33.8394C7.64814 34.3268 7.44546 34.7425 7.15224 35.0421C6.86168 35.3403 6.49282 35.5182 6.05592 35.5084ZM8.64911 41.2051C8.66389 40.9086 8.67534 40.5527 8.68467 40.1642C8.70637 39.7736 8.73034 39.3441 8.75524 38.8979C8.76949 38.6767 8.77162 38.4594 8.79466 38.2323C8.81383 38.0084 8.83327 37.7833 8.85245 37.5595C8.8916 37.115 8.91437 36.6894 8.96657 36.2809C8.85565 36.6796 8.77988 37.101 8.70517 37.5412C8.635 37.9789 8.5543 38.4411 8.52527 38.8757C8.48759 39.3149 8.46002 39.7462 8.44271 40.1446C8.43099 40.5395 8.44511 40.893 8.45683 41.1921C7.99995 41.057 7.62789 40.7558 7.41683 40.3259C7.30671 40.1136 7.22655 39.8749 7.17767 39.6195C7.15331 39.4917 7.13666 39.36 7.12814 39.2248C7.12135 39.0894 7.12934 38.9471 7.14172 38.8051C7.19765 38.2336 7.37369 37.6387 7.70539 37.0725C8.04442 36.5026 8.51568 35.9725 9.11371 35.5291C9.30986 35.8347 9.46499 36.1468 9.59496 36.4571C9.73784 36.7621 9.84703 37.0688 9.92547 37.3734C9.96555 37.5255 9.99444 37.6783 10.0224 37.8274C10.0541 37.9744 10.0781 38.1209 10.095 38.2652C10.1285 38.5541 10.1332 38.8364 10.1108 39.106C10.0842 39.3777 10.0494 39.6267 9.98166 39.8592C9.91468 40.0915 9.82053 40.3048 9.69949 40.4905C9.45727 40.8617 9.10839 41.1246 8.64911 41.2051ZM12.5611 46.5939C12.4722 45.9639 12.2999 45.1104 12.1822 44.1734C12.1491 43.9442 12.1154 43.7106 12.0815 43.4753C12.0466 43.243 12.028 42.9996 11.9999 42.7662C11.9735 42.5335 11.9473 42.3023 11.9216 42.0755C11.9081 41.9634 11.8948 41.8528 11.8817 41.7433C11.8686 41.6344 11.8626 41.5223 11.8523 41.4153C11.8458 41.5232 11.8382 41.6347 11.8346 41.7461C11.8339 41.8561 11.8333 41.9678 11.8326 42.0805C11.8329 42.3074 11.8362 42.5404 11.8425 42.7771C11.8489 43.0138 11.858 43.2543 11.8704 43.495C11.8909 43.7296 11.9142 43.9653 11.9399 44.1982C11.9654 44.4312 11.9933 44.6619 12.0228 44.8866C12.0382 44.9994 12.0534 45.1104 12.0683 45.2194C12.0853 45.3271 12.1064 45.4304 12.1254 45.5329C12.2039 45.9411 12.2848 46.314 12.3603 46.6237C11.859 46.5793 11.4198 46.3344 11.091 45.9459C10.7765 45.5459 10.5572 45.0163 10.4801 44.4207C10.417 43.8142 10.4845 43.1509 10.7009 42.5003C10.9335 41.8374 11.3147 41.1882 11.8442 40.6039C11.977 40.7426 12.1005 40.8845 12.215 41.0288C12.3302 41.1725 12.4316 41.3223 12.5405 41.4635C12.751 41.7509 12.9267 42.047 13.0702 42.3478C13.1392 42.5 13.2103 42.646 13.2737 42.792C13.3364 42.9387 13.3911 43.0861 13.438 43.2332C13.5335 43.5258 13.5898 43.824 13.6303 44.1031C13.7941 45.2099 13.474 46.2315 12.5611 46.5939ZM17.875 51.339C17.8124 51.1868 17.7431 51.0187 17.6683 50.8371C17.6309 50.7475 17.5921 50.6543 17.552 50.5583C17.5143 50.4601 17.4755 50.3589 17.4356 50.255C17.2775 49.8495 17.1035 49.403 16.9226 48.9391C16.7591 48.4772 16.5894 47.9974 16.4218 47.5237L16.3596 47.3502L16.3035 47.1725C16.2661 47.0553 16.2289 46.9389 16.1922 46.8234C16.1183 46.5965 16.0456 46.3738 15.9753 46.1581C16.0514 46.6006 16.1433 47.0839 16.2601 47.5709C16.3862 48.0473 16.5286 48.5366 16.6792 49.0145C16.8336 49.4875 17.0126 49.9286 17.1781 50.3437C17.2632 50.5485 17.3419 50.7505 17.4273 50.9271C17.5124 51.104 17.5942 51.2687 17.6711 51.4175C17.4049 51.4548 17.1404 51.4406 16.8943 51.3686C16.6513 51.2925 16.4204 51.1672 16.2076 51.0018C15.996 50.8348 15.7983 50.633 15.6333 50.3902C15.4724 50.1426 15.3364 49.8638 15.2309 49.5626C15.1277 49.2589 15.045 48.9441 15.016 48.5965C14.9851 48.2504 14.9895 47.8918 15.0325 47.528C15.0755 47.1643 15.1574 46.7959 15.2807 46.4295C15.4077 46.0593 15.5798 45.6874 15.7908 45.3267C16.1119 45.5666 16.4285 45.7958 16.7002 46.0536C16.837 46.1812 16.9653 46.3129 17.0856 46.4485C17.207 46.583 17.3297 46.7103 17.4388 46.8469C17.6602 47.1161 17.8475 47.3996 18.0058 47.686C18.1731 47.9614 18.3079 48.2439 18.4092 48.5261C18.512 48.8067 18.5754 49.095 18.6145 49.3605C18.6534 49.6264 18.6557 49.8856 18.6181 50.1297C18.5426 50.6181 18.3083 51.0459 17.875 51.339ZM24.5762 55.0165C24.4743 54.8769 24.3615 54.7225 24.2399 54.556C24.1218 54.3852 23.9952 54.2022 23.8618 54.0096C23.7298 53.8204 23.5912 53.6221 23.4479 53.4166C23.3769 53.3158 23.3049 53.2133 23.2318 53.109C23.1593 53.0051 23.0901 52.8924 23.0183 52.7833C22.877 52.5663 22.7331 52.3446 22.5882 52.1218C22.5167 52.0125 22.4449 51.9024 22.3732 51.7927L22.2661 51.6294L22.1637 51.4596C21.8952 51.0185 21.63 50.5827 21.3807 50.1732C21.5619 50.6092 21.7775 51.0704 22.0111 51.5451C22.1259 51.7863 22.2545 52.0138 22.3858 52.2417C22.5168 52.4703 22.6512 52.6984 22.787 52.9233C23.0543 53.3817 23.3478 53.7848 23.6209 54.1661C23.758 54.3553 23.8919 54.5353 24.0196 54.7027C24.1462 54.8732 24.2748 55.0118 24.3898 55.1469C23.3346 55.5694 22.153 54.9785 21.4302 53.8389C21.2446 53.5634 21.0969 53.2364 20.9808 52.8913C20.8646 52.5463 20.7817 52.1799 20.7382 51.7992C20.692 51.4226 20.6952 51.015 20.7394 50.6041C20.7833 50.1932 20.8702 49.7759 21.0021 49.3571C21.396 49.5112 21.7526 49.7043 22.0999 49.8872C22.2711 49.9827 22.4347 50.0849 22.5906 50.1926C22.7477 50.2982 22.8921 50.419 23.0402 50.5243C23.3318 50.743 23.593 50.9828 23.8234 51.2368C23.8811 51.3002 23.9367 51.3648 23.9904 51.43C24.0461 51.4911 24.0995 51.5536 24.151 51.6165C24.2541 51.7421 24.3489 51.8712 24.4353 52.0023C24.6079 52.2641 24.7466 52.5347 24.8476 52.806C24.9482 53.0774 25.0177 53.3339 25.0385 53.5947C25.0818 54.1119 24.9482 54.6083 24.5762 55.0165ZM32.5641 57.0941C31.9954 56.6381 31.2002 55.9531 30.3847 55.2407C29.9887 54.8736 29.5777 54.4929 29.1713 54.1163C28.7794 53.7244 28.4 53.3474 28.047 53.0054C28.3436 53.399 28.6794 53.8178 29.0394 54.2419C29.4018 54.6551 29.7947 55.0498 30.1876 55.442C30.3832 55.6417 30.5839 55.8173 30.7816 55.9895C30.9793 56.1619 31.1745 56.328 31.364 56.4859C31.5537 56.6415 31.7363 56.798 31.9122 56.9258C32.0881 57.0538 32.2545 57.1716 32.4078 57.2765C32.1673 57.4518 31.901 57.5765 31.6222 57.6338C31.3441 57.6858 31.0518 57.6834 30.7563 57.6318C30.6085 57.6059 30.4601 57.568 30.3121 57.5187C30.1642 57.4698 30.0168 57.409 29.8739 57.3265C29.5868 57.1668 29.3081 56.9641 29.0485 56.724C28.9187 56.6038 28.7938 56.4747 28.6748 56.3369C28.5566 56.1959 28.4464 56.0391 28.3424 55.8784C28.1345 55.5558 27.9556 55.2026 27.8131 54.8253C27.742 54.6365 27.6798 54.4415 27.6277 54.2415C27.5766 54.0374 27.5366 53.8252 27.5064 53.6103C27.4462 53.1796 27.4282 52.7313 27.4558 52.2705C27.6749 52.2994 27.8874 52.3381 28.0938 52.386C28.3008 52.4318 28.5068 52.4699 28.7039 52.5258C28.9015 52.5796 29.093 52.642 29.2785 52.712C29.3712 52.7466 29.4621 52.7846 29.5522 52.8221C29.6431 52.8554 29.7326 52.8906 29.8205 52.9281C30.1722 53.0764 30.4985 53.254 30.7978 53.454C31.0992 53.6435 31.3759 53.8432 31.6194 54.068C31.8634 54.288 32.074 54.5373 32.25 54.7761C32.4258 55.0155 32.5632 55.2674 32.6542 55.5256C32.8359 56.0417 32.8331 56.5821 32.5641 57.0941ZM8.93807 6.88574C8.93221 6.44041 8.99826 5.8294 9.08748 5.14635C9.11171 4.97523 9.13648 4.80065 9.16125 4.62501C9.1751 4.53733 9.18722 4.44726 9.2036 4.36037L9.25713 4.10089C9.33023 3.75493 9.40973 3.41042 9.49242 3.08581C9.42464 3.74285 9.31479 4.45893 9.26006 5.14861C9.22517 5.48542 9.19148 5.81003 9.16072 6.10598C9.14407 6.25151 9.12836 6.39 9.11358 6.51947C9.10186 6.65067 9.09107 6.77245 9.08122 6.88255C9.25193 6.84262 9.39668 6.76741 9.5353 6.67508C9.67326 6.58235 9.79257 6.46442 9.89284 6.32487C10.0934 6.04549 10.2178 5.68016 10.2632 5.2607C10.3781 4.4446 10.1937 3.40657 9.60881 2.46166C9.14674 2.88205 8.77428 3.35338 8.50223 3.82245C8.24843 4.30531 8.09809 4.78792 8.04589 5.21653C8.02072 5.43143 8.01793 5.63201 8.04509 5.81825C8.07532 6.00636 8.12938 6.1755 8.20648 6.32168C8.36055 6.61419 8.60743 6.81278 8.93807 6.88574ZM6.53956 11.1497C6.47618 10.6651 6.43863 9.97237 6.42012 9.19421C6.4124 8.99828 6.42265 8.80593 6.42931 8.60801C6.4369 8.41061 6.44648 8.21084 6.45807 8.01105C6.48377 7.61309 6.50654 7.20849 6.55661 6.83652C6.57312 7.56613 6.5919 8.39549 6.60934 9.17007C6.65142 9.94319 6.68338 10.6391 6.6915 11.1263C7.06262 10.9832 7.33521 10.7221 7.50725 10.378C7.59354 10.2062 7.65506 10.0131 7.69221 9.80403C7.72817 9.59417 7.75919 9.37768 7.7556 9.1438C7.7532 8.67898 7.65533 8.16547 7.46024 7.64453C7.27182 7.1281 6.99884 6.6118 6.60708 6.13358C6.48963 6.26583 6.37897 6.40128 6.2751 6.53818C6.22344 6.60676 6.17257 6.67548 6.12477 6.74486C6.08002 6.81622 6.03675 6.88799 5.9952 6.96016C5.82928 7.24802 5.69066 7.53854 5.5796 7.82401C5.52407 7.96728 5.47534 8.10882 5.43366 8.24851C5.41288 8.31829 5.39358 8.38767 5.3764 8.45638C5.36202 8.52656 5.34936 8.59647 5.33831 8.66505C5.29424 8.94084 5.27653 9.2039 5.28465 9.44825C5.30129 9.93775 5.41928 10.3506 5.6338 10.6465C5.85471 10.9463 6.16192 11.1248 6.53956 11.1497ZM4.73176 15.9364C4.66132 15.6778 4.58342 15.3601 4.50419 14.9996C4.46464 14.8192 4.42469 14.6289 4.38501 14.4297C4.34772 14.2316 4.30032 14.0213 4.27608 13.813C4.21882 13.3933 4.16649 12.9504 4.12321 12.5054C4.10364 12.2839 4.0774 12.0581 4.06981 11.8412C4.06236 11.6245 4.05743 11.41 4.05517 11.2009C4.1621 12.0045 4.34692 12.929 4.48488 13.756C4.50246 13.8596 4.52003 13.962 4.53735 14.0632C4.55878 14.1652 4.57996 14.266 4.60073 14.3654C4.64148 14.5625 4.68089 14.7529 4.71845 14.9345C4.79195 15.2956 4.8544 15.6175 4.90034 15.8833C5.67095 15.4477 5.87762 14.5539 5.7322 13.5395C5.54471 12.5151 5.00474 11.3497 3.99178 10.4107C3.78059 10.7427 3.60042 11.0832 3.45101 11.4227C3.41413 11.5077 3.37737 11.5918 3.34568 11.6771C3.31639 11.7638 3.28909 11.8499 3.26352 11.9351C3.21252 12.1065 3.16898 12.2765 3.13276 12.4441C3.06032 12.7792 3.0173 13.104 3.00226 13.4112C2.98841 13.7183 3.02396 14.0151 3.07217 14.2824C3.27457 15.3589 3.88459 16.0105 4.73176 15.9364ZM3.65848 21.1907C3.53597 20.923 3.39508 20.5917 3.24528 20.2139C3.17031 20.025 3.09321 19.8245 3.01504 19.615C2.97669 19.5103 2.93488 19.4029 2.89879 19.2942C2.8651 19.1856 2.83101 19.0751 2.79666 18.9641C2.66056 18.5169 2.52607 18.0424 2.40103 17.5641C2.33365 17.3236 2.28878 17.087 2.2427 16.8511C2.1969 16.6156 2.15428 16.3822 2.1154 16.1537C2.18238 16.3689 2.25176 16.5916 2.32247 16.819C2.35696 16.9315 2.39184 17.0451 2.42687 17.1591C2.46002 17.2728 2.49731 17.3876 2.53925 17.5036C2.69639 17.9591 2.85578 18.4206 3.00958 18.8663C3.08788 19.0862 3.1514 19.2989 3.23462 19.5071C3.31399 19.714 3.39069 19.9137 3.46393 20.1045C3.60841 20.4835 3.73425 20.8214 3.83265 21.1007C4.2067 20.797 4.41803 20.3951 4.48315 19.9339C4.49979 19.8186 4.50579 19.6996 4.50579 19.5773C4.51085 19.4563 4.50712 19.3322 4.495 19.205C4.47063 18.9513 4.41231 18.6871 4.32189 18.4167C4.23307 18.1472 4.10564 17.8698 3.96036 17.5952C3.82054 17.3216 3.65036 17.0474 3.45088 16.7789C3.05179 16.2429 2.53672 15.7286 1.9122 15.3026C1.20471 16.8961 1.15211 18.554 1.56784 19.6833C1.97904 20.8222 2.75271 21.4207 3.65848 21.1907ZM3.45075 26.8201C3.25806 26.5552 3.05819 26.2236 2.82755 25.844C2.7137 25.6542 2.59545 25.4521 2.4744 25.2403C2.34897 25.0284 2.23738 24.8067 2.12552 24.5777C1.89955 24.1199 1.67037 23.6318 1.45079 23.1373C1.24279 22.6434 1.06795 22.1438 0.900434 21.6636C1.11882 22.1031 1.35199 22.572 1.58861 23.0476C1.83869 23.5112 2.09223 23.981 2.33712 24.4344C2.45989 24.6578 2.56828 24.8755 2.69172 25.0851C2.81343 25.2933 2.93128 25.495 3.04367 25.6873C3.26605 26.0696 3.4598 26.4107 3.61653 26.6936C3.96262 26.2989 4.11975 25.829 4.10777 25.3221C4.1059 25.1954 4.08939 25.0662 4.07048 24.9353C4.05423 24.8042 4.02814 24.6713 3.99231 24.5372C3.92081 24.2687 3.81095 23.9949 3.66567 23.7203C3.5931 23.583 3.5116 23.4452 3.42158 23.3079C3.37684 23.2397 3.3293 23.171 3.2807 23.1026C3.23529 23.0349 3.18762 22.9669 3.13795 22.899C2.93941 22.6291 2.70797 22.363 2.44631 22.1077C2.18478 21.8529 1.89289 21.6084 1.57343 21.3834C1.25345 21.1584 0.905494 20.9522 0.543028 20.776C0.526383 20.8338 0.509871 20.8909 0.493492 20.9482C0.480975 21.0056 0.468591 21.0635 0.456207 21.1205C0.432637 21.2357 0.411198 21.3501 0.392289 21.4646C0.354205 21.6926 0.325309 21.9196 0.305068 22.143C0.284828 22.3668 0.273376 22.5871 0.270047 22.8032C0.263522 23.0189 0.289488 23.2315 0.309329 23.4379C0.405872 24.2637 0.597757 24.9967 0.934523 25.5718C1.25651 26.1478 1.64973 26.566 2.08331 26.7845C2.52594 27.003 2.99467 27.0229 3.45075 26.8201ZM4.25757 32.6961C4.01003 32.4487 3.71188 32.1382 3.39056 31.7774C3.08615 31.4133 2.75431 30.9994 2.41288 30.5534C2.23724 30.3311 2.07758 30.0981 1.91779 29.8597C1.75693 29.6216 1.59607 29.3782 1.43747 29.1321C1.10923 28.6413 0.838381 28.1357 0.577783 27.6481C1.19086 28.5275 1.93377 29.4948 2.60703 30.3617C2.95472 30.7867 3.28989 31.1965 3.59549 31.5701C3.74051 31.7551 3.89737 31.9259 4.03479 32.0865C4.17168 32.2466 4.29885 32.3953 4.41417 32.5302C4.70047 32.0454 4.75187 31.5222 4.66824 30.9805C4.62097 30.7107 4.52749 30.4385 4.39193 30.1675C4.35798 30.0997 4.32149 30.0321 4.28234 29.9644C4.24692 29.8964 4.2091 29.8283 4.16862 29.7604C4.08792 29.6248 3.99711 29.4899 3.89684 29.3563C3.6963 29.0891 3.4578 28.827 3.18549 28.5748C3.04647 28.4492 2.91038 28.3248 2.7647 28.2039C2.61902 28.0831 2.46508 27.9655 2.30356 27.8523C1.65946 27.3994 0.88512 27.0107 0.0375464 26.7598C-0.0515388 27.792 0.0147757 28.7927 0.270047 29.6635C0.491361 30.5395 0.89604 31.2819 1.33041 31.842C1.44107 31.9818 1.54973 32.1112 1.67051 32.2265C1.79208 32.3416 1.91566 32.4447 2.04056 32.535C2.29024 32.7157 2.54471 32.8456 2.79785 32.9206C3.3044 33.0712 3.80562 33.0017 4.25757 32.6961ZM6.22943 38.6519C5.58519 38.2383 4.73988 37.5639 3.84344 36.7479C3.41373 36.3339 2.95445 35.8907 2.52754 35.4268C2.11327 34.9592 1.7002 34.48 1.32868 34.0107C1.74708 34.4108 2.1941 34.8383 2.64765 35.2717C2.86523 35.4866 3.10626 35.6934 3.33636 35.8996C3.56553 36.1033 3.79337 36.306 4.01735 36.505C4.12774 36.6032 4.2372 36.7007 4.34533 36.7967C4.45811 36.8898 4.56944 36.9818 4.67903 37.0725C4.89528 37.2515 5.10448 37.4247 5.30409 37.5901C5.50277 37.7538 5.68413 37.911 5.86164 38.0532C6.03994 38.1942 6.20573 38.3253 6.35593 38.4442C6.45754 38.1596 6.4883 37.8791 6.4827 37.5954C6.47871 37.3106 6.42052 37.0298 6.31319 36.7557C6.08535 36.2116 5.71609 35.6736 5.17506 35.1899C5.04189 35.0682 4.89235 34.9517 4.74534 34.8353C4.59913 34.7184 4.4436 34.6054 4.27941 34.4963C3.9513 34.2786 3.5887 34.0777 3.19747 33.8992C2.80105 33.7223 2.3981 33.5624 1.96519 33.4351C1.53308 33.3076 1.07687 33.2114 0.602684 33.1568C0.646362 33.7184 0.719467 34.2671 0.871405 34.7768C0.942114 35.0329 1.02121 35.2822 1.10723 35.5232C1.19406 35.7641 1.28274 35.9984 1.39726 36.217C1.61711 36.6572 1.85986 37.0596 2.11687 37.4162C2.24124 37.5961 2.38931 37.7571 2.5302 37.9093C2.67295 38.0611 2.81783 38.2003 2.96377 38.327C3.2574 38.5796 3.54782 38.7834 3.8477 38.926C4.15051 39.067 4.44759 39.1532 4.73176 39.1817C5.3001 39.2392 5.8157 39.0642 6.22943 38.6519ZM9.50081 44.4483C9.31385 44.3708 9.10705 44.2814 8.88374 44.181C8.6599 44.0804 8.41834 43.9698 8.17812 43.8384C7.93417 43.7099 7.6773 43.5704 7.41084 43.4217C7.27728 43.3459 7.14159 43.2691 7.00417 43.1914C6.93532 43.1516 6.86621 43.1115 6.79643 43.0712C6.72945 43.0288 6.66207 42.9859 6.59443 42.9432C6.32344 42.7699 6.04647 42.5886 5.76709 42.4012C5.48892 42.2131 5.20036 42.0228 4.93736 41.8156C4.66904 41.6112 4.40179 41.4031 4.13946 41.1932C4.00829 41.0872 3.87833 40.9823 3.75009 40.8784C3.62199 40.7731 3.50574 40.6631 3.38603 40.556C4.43068 41.2587 5.61529 42.0117 6.72639 42.6517C6.86328 42.7323 6.99884 42.812 7.13293 42.8912C7.27089 42.9659 7.40711 43.0399 7.54134 43.113C7.80567 43.2569 8.06174 43.3965 8.30569 43.5293C8.78094 43.799 9.23569 44.0156 9.59389 44.2067C9.6381 43.8869 9.61919 43.5802 9.54356 43.2896C9.47764 42.992 9.35953 42.7079 9.18908 42.4423C8.837 41.9179 8.33498 41.4305 7.66545 41.0325C7.32455 40.8366 6.97713 40.6444 6.58284 40.4835C6.19148 40.3211 5.76736 40.1825 5.31767 40.0732C4.44134 39.8443 3.46113 39.7285 2.43712 39.7978C2.51901 40.0902 2.61116 40.3764 2.71236 40.655C2.81437 40.9331 2.91877 41.2067 3.05273 41.4608C3.31279 41.9721 3.59203 42.4532 3.90696 42.879C4.23161 43.2994 4.57263 43.6753 4.91872 43.9997C5.08784 44.1643 5.27852 44.3036 5.45829 44.4357C5.64046 44.5668 5.82236 44.6843 6.00252 44.7878C6.71387 45.2096 7.4396 45.3777 8.04429 45.3206C8.65191 45.2625 9.15459 44.9699 9.50081 44.4483ZM14.1665 49.8014C13.7447 49.7185 13.2335 49.5972 12.655 49.4457C12.5117 49.4067 12.3595 49.3704 12.2125 49.3231C12.0643 49.2757 11.9133 49.2271 11.7596 49.1777C11.4512 49.0765 11.1307 48.9676 10.8018 48.8514C10.468 48.7397 10.1492 48.5995 9.81667 48.4623C9.48617 48.323 9.15166 48.1777 8.81756 48.0276C8.48932 47.8728 8.17066 47.7057 7.85174 47.54C7.53588 47.3722 7.21709 47.2075 6.92161 47.0322C7.54627 47.289 8.21554 47.5498 8.87256 47.813C9.55075 48.0592 10.2253 48.3017 10.87 48.5242C11.5321 48.7306 12.1493 48.9315 12.7141 49.1C13.2886 49.2593 13.7955 49.4019 14.2087 49.5256C14.1147 48.1383 13.041 47.198 11.5042 46.6227C10.7154 46.3534 9.83332 46.157 8.84646 46.1159C8.35016 46.0983 7.85547 46.0991 7.34013 46.1486C6.82639 46.1968 6.30041 46.2878 5.77362 46.4298C6.0711 47.0106 6.39189 47.5674 6.77952 48.0477C7.15943 48.5336 7.55013 48.9853 7.98663 49.3547C8.20076 49.543 8.41661 49.7185 8.63273 49.8808C8.74073 49.9619 8.84885 50.0397 8.95671 50.114C9.06764 50.1861 9.18029 50.2527 9.29135 50.3169C9.73664 50.5725 10.1747 50.7736 10.5935 50.9173C11.4508 51.1859 12.232 51.2188 12.8465 51.0303C13.4661 50.8381 13.9298 50.4149 14.1665 49.8014ZM20.2902 54.3013C20.0608 54.3094 19.8053 54.3146 19.5268 54.3152C19.2501 54.3139 18.9436 54.3196 18.6334 54.2959C18.3201 54.2772 17.9881 54.2534 17.6413 54.2242C17.4671 54.2083 17.2898 54.1923 17.1105 54.1761C16.9294 54.16 16.7536 54.1298 16.5706 54.105C15.8446 53.9974 15.0663 53.8799 14.3195 53.6941C13.9424 53.6062 13.563 53.5152 13.1903 53.417C12.826 53.3091 12.4657 53.197 12.1148 53.0829C12.4658 53.1477 12.8285 53.2146 13.1987 53.2829C13.5684 53.3471 13.9516 53.3994 14.3279 53.4574C14.7072 53.5121 15.078 53.5749 15.4553 53.6201C15.8301 53.6619 16.203 53.7036 16.5694 53.7444C17.2866 53.835 17.9963 53.8687 18.6176 53.9189C18.7729 53.9308 18.9243 53.9421 19.0714 53.9532C19.2188 53.9628 19.365 53.9661 19.5035 53.973C19.779 53.9861 20.035 53.9987 20.2669 54.01C20.1584 53.6589 19.9922 53.3511 19.776 53.0872C19.5625 52.8186 19.309 52.5768 19.0066 52.385C18.8561 52.2879 18.6947 52.2012 18.523 52.1248C18.3503 52.0501 18.1783 51.9694 17.9909 51.9075C17.6193 51.7791 17.2097 51.6912 16.7697 51.6409C16.3405 51.5764 15.8802 51.5506 15.3964 51.5642C15.1553 51.5699 14.9054 51.589 14.6562 51.6121C14.4092 51.632 14.1572 51.6624 13.9019 51.7027C13.3911 51.7843 12.8661 51.9071 12.3382 52.0756C11.8069 52.2485 11.2917 52.4461 10.776 52.7097C10.8841 52.8475 10.994 52.983 11.1059 53.1151C11.2226 53.2422 11.341 53.3664 11.4608 53.4873C11.7006 53.7298 11.9461 53.96 12.1951 54.1774C12.44 54.3997 12.7076 54.5863 12.9685 54.7687C13.2311 54.9496 13.4949 55.1168 13.7576 55.2705C13.8236 55.3082 13.8893 55.3456 13.9545 55.383C14.0223 55.4166 14.0896 55.4498 14.1564 55.4831C14.2909 55.548 14.4249 55.6094 14.5582 55.6671C14.8245 55.7833 15.0877 55.8852 15.3461 55.9732C15.4755 56.0166 15.6023 56.0587 15.7302 56.0934C15.8597 56.126 15.9877 56.1549 16.1139 56.1807C16.3664 56.2316 16.6118 56.269 16.8485 56.2927C17.3218 56.3406 17.7595 56.3348 18.1635 56.2564C18.5643 56.1837 18.9181 56.0594 19.2163 55.887C19.8134 55.5422 20.1862 55.0029 20.2902 54.3013ZM27.8203 57.4959C27.5867 57.5628 27.325 57.6331 27.0389 57.7047C26.7524 57.7768 26.4404 57.8536 26.1142 57.9082C25.7862 57.9679 25.4375 58.0274 25.0717 58.0844C24.889 58.1123 24.7008 58.1432 24.5115 58.1666C24.322 58.1856 24.1302 58.2047 23.9365 58.2241C23.5467 58.2607 23.1443 58.2936 22.7342 58.3218C22.3267 58.3443 21.9184 58.346 21.5039 58.351C20.6703 58.3704 19.8545 58.3116 19.0667 58.2502C19.4475 58.2311 19.8412 58.2115 20.2428 58.1914C20.4423 58.1799 20.6391 58.1754 20.8426 58.1575C21.0446 58.1401 21.2479 58.1229 21.4519 58.1055C21.8529 58.0702 22.2568 58.0349 22.6584 57.9995C23.0585 57.9564 23.4571 57.9007 23.8411 57.8525C24.0323 57.8277 24.2218 57.8033 24.4091 57.7788C24.5948 57.7561 24.7779 57.7309 24.9603 57.6976C25.3194 57.6368 25.6668 57.5782 25.9982 57.5221C26.6502 57.4226 27.2406 57.2854 27.7195 57.1975C27.5176 56.8653 27.268 56.5929 26.9783 56.3776C26.6924 56.1497 26.3685 55.9715 26.0091 55.8502C25.8298 55.7888 25.6412 55.7422 25.4459 55.7056C25.2532 55.6614 25.0526 55.6301 24.8449 55.6114C24.6372 55.5929 24.4222 55.5864 24.2008 55.5922C23.9795 55.5975 23.7499 55.6196 23.5219 55.636C23.0625 55.6771 22.5804 55.7653 22.083 55.8992C21.8328 55.9695 21.5851 56.038 21.3344 56.1192C21.0835 56.2007 20.8299 56.2934 20.5752 56.3981C20.0673 56.6038 19.5473 56.8679 19.0482 57.1559C18.5483 57.4461 18.0555 57.7846 17.5863 58.1758C17.8816 58.4054 18.1775 58.6308 18.4859 58.8254C18.7964 59.016 19.11 59.1933 19.4242 59.3559C20.0463 59.6938 20.698 59.918 21.3205 60.1089C21.4766 60.1553 21.6317 60.1984 21.7854 60.2382C21.9412 60.2724 22.0964 60.3017 22.2494 60.3285C22.5558 60.3815 22.8553 60.4213 23.146 60.4474C23.7238 60.5092 24.2822 60.4735 24.784 60.4063C25.7866 60.2796 26.6026 59.8973 27.1264 59.3953C27.6529 58.89 27.8958 58.2413 27.8203 57.4959ZM36.5802 58.8139C36.1383 59.0727 35.5855 59.3749 34.9456 59.6979C34.6266 59.8446 34.2857 59.9961 33.9267 60.1498C33.7457 60.2263 33.5617 60.3037 33.3752 60.3821C33.2808 60.4209 33.1857 60.46 33.0903 60.499C32.9943 60.5336 32.8979 60.5682 32.8009 60.6033C32.0228 60.8756 31.1839 61.173 30.3383 61.3768C29.9149 61.4849 29.4852 61.5975 29.0607 61.6865C28.6376 61.7681 28.216 61.8435 27.8022 61.9117C28.1886 61.7949 28.5881 61.6737 28.9957 61.5504C29.1966 61.4926 29.401 61.4203 29.6052 61.3504C29.808 61.2807 30.0121 61.2104 30.217 61.1401C30.4193 61.0698 30.6224 60.9999 30.8256 60.9296C31.0275 60.859 31.2273 60.7927 31.428 60.7108C31.8228 60.5556 32.2157 60.4012 32.6016 60.2493C32.7909 60.174 32.9784 60.0993 33.1638 60.0253C33.3475 59.9441 33.529 59.864 33.7076 59.7848C34.0586 59.6293 34.3984 59.4789 34.7226 59.3352C34.8025 59.2999 34.8816 59.2649 34.9592 59.2303C35.037 59.1929 35.1137 59.1556 35.189 59.1192C35.339 59.0462 35.4845 58.9752 35.6254 58.907C35.9034 58.7738 36.1619 58.6506 36.3964 58.5385C35.8002 57.9601 35.0765 57.703 34.2774 57.6222C34.0774 57.6066 33.8722 57.6066 33.6623 57.6219C33.5575 57.6286 33.4513 57.6428 33.3445 57.6544C33.2379 57.6643 33.1302 57.6779 33.0216 57.6952C32.5871 57.7641 32.1362 57.8918 31.6744 58.0738C31.2154 58.2382 30.7464 58.4501 30.2728 58.7164C30.0367 58.846 29.7974 59.0003 29.5628 59.1449C29.3275 59.2927 29.0925 59.4529 28.8591 59.6251C28.3923 59.9698 27.9317 60.362 27.4915 60.8008C27.0547 61.2267 26.6381 61.6984 26.2591 62.2193C27.7175 62.8798 29.2411 63.1743 30.627 63.2231C30.7998 63.2338 30.9719 63.2299 31.1417 63.2228C31.3114 63.2163 31.4787 63.2068 31.6433 63.1943C31.9725 63.1691 32.2909 63.1318 32.5965 63.0831C32.6725 63.07 32.7482 63.0574 32.8233 63.0445C32.8979 63.0269 32.9722 63.0095 33.0458 62.9921C33.1925 62.9562 33.3357 62.9172 33.4754 62.876C33.7545 62.7931 34.0189 62.7008 34.2671 62.5992C34.5158 62.4951 34.7472 62.3934 34.962 62.2624C35.1766 62.1344 35.3737 61.9988 35.5524 61.8568C35.9089 61.5734 36.1905 61.2643 36.3903 60.9369C36.7906 60.2829 36.8611 59.5569 36.5802 58.8137V58.8139ZM11.1276 3.65291C11.2922 3.44995 11.4965 3.20798 11.7273 2.94294C11.8435 2.81108 11.9654 2.67298 12.0915 2.52985C12.1555 2.45967 12.218 2.38552 12.2867 2.31534C12.3563 2.24636 12.4268 2.17645 12.498 2.10588C12.7834 1.82385 13.0821 1.53533 13.3799 1.2541C13.5254 1.10977 13.6879 0.985203 13.8402 0.856394C13.9949 0.730371 14.1467 0.606603 14.2937 0.487081C14.1624 0.623318 14.0268 0.763668 13.8886 0.907202C13.7512 1.05153 13.6019 1.18843 13.4684 1.34364C13.1941 1.64663 12.9128 1.94921 12.6384 2.23814C12.5695 2.3099 12.5013 2.38127 12.434 2.45185C12.3671 2.52295 12.3061 2.59737 12.2431 2.66794C12.1174 2.80962 11.9959 2.94692 11.88 3.07758C11.6464 3.33706 11.4322 3.56788 11.2506 3.75532C11.6048 3.9299 11.9867 3.93799 12.3567 3.81581C12.5418 3.75453 12.7243 3.66061 12.8999 3.53684C13.0767 3.41426 13.2403 3.25601 13.4128 3.08886C13.7517 2.7486 14.0436 2.29558 14.2849 1.77185C14.5382 1.2602 14.7267 0.66285 14.8226 0.000366211C14.1679 0.02703 13.5372 0.183033 12.975 0.420355C12.4246 0.670278 11.9578 1.01624 11.5945 1.38436C11.4097 1.56557 11.2713 1.77145 11.1587 1.97243C11.047 2.1738 10.9675 2.37623 10.9242 2.57336C10.8374 2.96788 10.8965 3.34064 11.1276 3.65291Z" fill="#A6744E"/>
</g>
<mask id="mask1_113_2463" style="mask-type:luminance" maskUnits="userSpaceOnUse" x="39" y="0" width="37" height="64">
<path d="M39.271 0H76V63.0833H39.271V0Z" fill="white"/>
</mask>
<g mask="url(#mask1_113_2463)">
<path fill-rule="evenodd" clip-rule="evenodd" d="M63.8036 6.09964C63.5065 5.989 63.2042 5.80687 62.9276 5.55641C62.7927 5.42813 62.6472 5.29667 62.5161 5.14425C62.3842 4.99276 62.2614 4.82402 62.1505 4.63857C62.5376 4.45418 62.9355 4.35521 63.3157 4.33094C63.6944 4.30825 64.0639 4.35243 64.36 4.4746C64.9603 4.71206 65.3718 5.17304 65.2982 5.71573C64.9935 5.56291 64.5326 5.38728 64.0531 5.21111C63.8115 5.12462 63.5633 5.03826 63.3166 4.96105C63.0628 4.88995 62.8132 4.82548 62.5795 4.77109C62.8026 4.85984 63.0456 4.94951 63.2909 5.0429C63.5326 5.14147 63.776 5.24082 64.0116 5.337C64.2527 5.43132 64.4851 5.52152 64.6955 5.60377C64.8032 5.64423 64.9049 5.6823 65 5.71759C65.0934 5.75473 65.1796 5.78869 65.2575 5.81934C64.9566 6.2697 64.4038 6.31335 63.8036 6.09964ZM66.1232 9.76824C65.5304 9.42121 64.9096 8.80264 64.5475 7.92392C65.0071 7.77296 65.4464 7.72918 65.8634 7.76089C66.2786 7.79339 66.6625 7.90588 66.9839 8.07502C67.3118 8.24044 67.5502 8.47736 67.6971 8.73989C67.8441 9.00255 67.8944 9.2924 67.816 9.58292C67.4979 9.37279 67.0394 9.09872 66.5463 8.83009C66.0375 8.57075 65.4805 8.32494 64.9968 8.13219C65.2225 8.26405 65.4679 8.40254 65.7203 8.54197C65.8476 8.61174 65.9754 8.68192 66.1023 8.75156C66.2315 8.82081 66.3597 8.88952 66.4786 8.96249C66.962 9.24743 67.4246 9.51128 67.7606 9.68878C67.3702 10.1275 66.7287 10.1029 66.1232 9.76824ZM67.9727 13.8901C67.6855 13.6549 67.3771 13.3525 67.1359 12.9747C67.0133 12.7864 66.9041 12.5805 66.8109 12.3579C66.7123 12.1381 66.6167 11.9077 66.5482 11.6582C67.0614 11.5676 67.559 11.5801 68.0139 11.6754C68.4589 11.7744 68.8497 11.9606 69.1682 12.1962C69.3274 12.3148 69.4673 12.4458 69.5834 12.5852C69.6412 12.655 69.6936 12.7265 69.7398 12.8C69.784 12.8733 69.8171 12.9509 69.846 13.0281C69.9599 13.338 69.9651 13.6614 69.8307 13.9631C69.6763 13.8231 69.4874 13.6596 69.2761 13.4854C69.1702 13.3993 69.0592 13.3096 68.9444 13.2162C68.8292 13.1252 68.6991 13.0369 68.5722 12.9463C68.3161 12.7664 68.0502 12.5866 67.788 12.417C67.5226 12.2484 67.2731 12.0843 67.0105 11.951C67.2511 12.1196 67.4779 12.3134 67.7293 12.5029C67.9816 12.6944 68.2364 12.8887 68.4822 13.0755C68.7392 13.2609 68.9593 13.4528 69.1758 13.6219C69.3898 13.7925 69.5858 13.9458 69.7514 14.0708C69.2532 14.4835 68.5657 14.3506 67.9727 13.8901ZM69.2318 18.435C69.0983 18.2851 68.9472 18.1199 68.8231 17.9328C68.6958 17.7464 68.5815 17.5415 68.4841 17.3199C68.3022 16.8729 68.1294 16.3766 68.0689 15.8199C68.6328 15.8032 69.1632 15.8961 69.6334 16.0718C69.8661 16.16 70.0937 16.266 70.2841 16.3933C70.4754 16.5198 70.6479 16.6624 70.7972 16.816C71.0962 17.1229 71.3047 17.4734 71.3915 17.8223C71.459 18.1753 71.4074 18.5255 71.21 18.828C70.926 18.4752 70.5276 17.9946 70.0285 17.5257C69.541 17.0533 69.027 16.5755 68.5124 16.2051C68.9658 16.6443 69.4332 17.1629 69.9068 17.6492C70.0257 17.7712 70.1418 17.8912 70.2542 18.0072C70.3662 18.1241 70.4651 18.2399 70.5663 18.3492C70.7655 18.5681 70.9487 18.7663 71.1045 18.9284C70.4991 19.2868 69.7854 19.0268 69.2318 18.435ZM69.778 23.3457C69.5219 22.9816 69.3022 22.5352 69.1749 22.0307C69.1417 21.9045 69.1156 21.7745 69.0927 21.6415C69.0633 21.5092 69.0391 21.3736 69.0204 21.2349C68.9841 20.9574 68.9714 20.6674 68.9869 20.3661C69.5909 20.4424 70.1395 20.6301 70.6101 20.897C70.8453 21.0303 71.0602 21.183 71.2529 21.3496C71.4422 21.5168 71.5952 21.6993 71.7292 21.8889C71.9937 22.2683 72.1532 22.6792 72.184 23.067C72.2013 23.4558 72.0781 23.8214 71.8159 24.1097C71.6974 23.8954 71.5486 23.6428 71.3802 23.3704C71.2991 23.234 71.202 23.0933 71.099 22.9499C70.9964 22.8082 70.8904 22.6623 70.7832 22.5135C70.5663 22.2198 70.3386 21.924 70.1105 21.6413C69.8768 21.3592 69.6231 21.0924 69.3917 20.8504C69.4906 20.9873 69.5928 21.1288 69.6973 21.2729C69.8018 21.4177 69.9155 21.5651 70.013 21.7163C70.2206 22.021 70.4301 22.3293 70.6325 22.6263C71.0617 23.2254 71.4055 23.7995 71.6843 24.1999C70.9767 24.4763 70.2626 24.0723 69.778 23.3457ZM69.4897 28.5283C69.3041 28.101 69.1431 27.5906 69.0923 27.0358C69.0559 26.4813 69.0447 25.8754 69.1879 25.2435C69.8153 25.4284 70.3643 25.7222 70.8158 26.0872C71.0406 26.2694 71.2464 26.4693 71.4157 26.6797C71.5794 26.8897 71.7166 27.1106 71.8248 27.3355C71.9325 27.5602 72.0114 27.7887 72.0585 28.0133C72.0822 28.1257 72.0986 28.237 72.1061 28.3463C72.1084 28.4551 72.1028 28.5617 72.0893 28.6655C72.0343 29.0808 71.8491 29.4477 71.522 29.7055C71.4325 29.457 71.3173 29.1623 71.1834 28.843C71.0495 28.5237 70.9035 28.1807 70.716 27.8304C70.5355 27.481 70.3442 27.1275 70.1511 26.7884C70.1021 26.7035 70.0551 26.6196 70.0046 26.5367C69.9515 26.4542 69.8988 26.3722 69.846 26.2911C69.7411 26.13 69.6366 25.9743 69.534 25.8261C69.6151 25.9883 69.6986 26.1557 69.784 26.3263C69.8261 26.412 69.8731 26.4991 69.9137 26.5863C69.9543 26.6738 69.9944 26.7619 70.0354 26.8502C70.2038 27.2092 70.3741 27.5721 70.5387 27.9221C70.5812 28.0109 70.6232 28.099 70.6642 28.1859C70.702 28.2731 70.7393 28.3589 70.7758 28.4434C70.8503 28.6139 70.9222 28.7786 70.9908 28.9356C71.1297 29.2511 71.259 29.5382 71.3705 29.7753C70.5751 29.9395 69.8853 29.3811 69.4897 28.5283ZM68.8823 35.042C68.589 34.7424 68.3866 34.3267 68.2559 33.8393C68.1859 33.5939 68.1388 33.3316 68.1169 33.0577C68.1057 32.9207 68.1011 32.7808 68.1033 32.6385C68.1067 32.4967 68.1151 32.3518 68.1197 32.2026C68.1454 31.607 68.3147 30.9891 68.5424 30.3477C68.8581 30.5018 69.1492 30.6809 69.4127 30.8804C69.6777 31.0799 69.9151 31.2999 70.1105 31.5311C70.5074 31.9946 70.7873 32.5158 70.9418 33.033C71.0808 33.5461 71.0794 34.0506 70.9571 34.4819C70.926 34.5892 70.8882 34.6928 70.8392 34.7893C70.787 34.8848 70.7262 34.9743 70.6582 35.0572C70.522 35.2229 70.354 35.3611 70.1548 35.4637C70.1129 35.1863 70.0546 34.8559 69.9809 34.4965C69.8913 34.1322 69.7868 33.7388 69.6716 33.34C69.6138 33.1406 69.5536 32.9399 69.4912 32.7403C69.4192 32.5384 69.3456 32.3376 69.2709 32.1408C69.1216 31.7471 68.9682 31.3689 68.8156 31.0238C68.9136 31.3886 69.0232 31.7817 69.1393 32.1861C69.1949 32.3877 69.2616 32.5945 69.3115 32.797C69.3628 33.0013 69.4137 33.2044 69.4636 33.4037C69.5624 33.8043 69.6725 34.1997 69.756 34.5574C69.8354 34.9132 69.9105 35.2386 69.9785 35.5081C69.5419 35.5181 69.1725 35.34 68.8823 35.042ZM66.3351 40.4904C66.2138 40.3047 66.1195 40.0914 66.0528 39.8591C65.9847 39.6266 65.9503 39.3776 65.9236 39.1059C65.9012 38.8363 65.9059 38.554 65.9395 38.2651C65.9562 38.1208 65.9805 37.9743 66.0123 37.8273C66.0397 37.6782 66.0686 37.5254 66.1089 37.3733C66.1871 37.0687 66.2963 36.762 66.4395 36.457C66.5692 36.1467 66.7246 35.8346 66.9205 35.5289C67.5185 35.9724 67.99 36.5025 68.3287 37.0724C68.6608 37.6384 68.8367 38.2335 68.8926 38.805C68.9047 38.947 68.9131 39.0893 68.9062 39.2247C68.8978 39.3599 68.881 39.4916 68.8568 39.6194C68.8078 39.8748 68.7275 40.1134 68.6175 40.3258C68.4066 40.7557 68.0344 41.0569 67.5776 41.192C67.5893 40.8929 67.6033 40.5394 67.5917 40.1444C67.5744 39.7461 67.5469 39.3148 67.5092 38.8756C67.4801 38.441 67.3995 37.9788 67.329 37.5409C67.2544 37.1009 67.1788 36.6795 67.0679 36.2807C67.1201 36.6893 67.143 37.1148 67.1816 37.5594C67.2013 37.7832 67.2209 38.0083 67.2395 38.2321C67.2628 38.4593 67.2651 38.6766 67.2792 38.8977C67.3044 39.344 67.3281 39.7735 67.35 40.1641C67.359 40.5526 67.3706 40.9085 67.3855 41.205C66.9261 41.1245 66.5772 40.8616 66.3351 40.4904ZM62.4042 44.103C62.4448 43.8239 62.5007 43.5257 62.5963 43.2331C62.6431 43.086 62.698 42.9386 62.7605 42.7919C62.824 42.6458 62.8954 42.4999 62.9644 42.3477C63.1077 42.0467 63.2834 41.7506 63.4938 41.4634C63.6025 41.3222 63.7042 41.1724 63.8194 41.0287C63.9342 40.8844 64.0574 40.7425 64.1903 40.6038C64.7197 41.1879 65.1008 41.8373 65.3336 42.5001C65.55 43.1508 65.6176 43.8141 65.5542 44.4206C65.4773 45.0162 65.2579 45.5457 64.9436 45.9457C64.6142 46.3342 64.1753 46.5792 63.6739 46.6236C63.7495 46.3139 63.8306 45.941 63.909 45.5328C63.9281 45.4302 63.9491 45.3269 63.9659 45.2193C63.9813 45.1103 63.9962 44.9992 64.0116 44.8865C64.041 44.6618 64.0689 44.4311 64.0946 44.1981C64.1203 43.9652 64.1436 43.7295 64.1636 43.4948C64.1763 43.2542 64.1856 43.0137 64.1917 42.777C64.1982 42.5402 64.202 42.3073 64.202 42.0804C64.2011 41.9677 64.2005 41.856 64.1996 41.746C64.1964 41.6346 64.1884 41.5231 64.1819 41.4152C64.172 41.5221 64.166 41.6342 64.1525 41.7432C64.1394 41.8525 64.1264 41.9633 64.1129 42.0754C64.0872 42.3022 64.0611 42.5334 64.0345 42.7661C64.0065 42.9995 63.9879 43.2429 63.9528 43.4752C63.9193 43.7105 63.8852 43.9441 63.852 44.1733C63.7346 45.1103 63.562 45.9638 63.4733 46.5938C62.5605 46.2314 62.2405 45.2098 62.4042 44.103ZM57.4163 50.1296C57.3785 49.8854 57.3809 49.6263 57.42 49.3604C57.4588 49.0949 57.5227 48.8065 57.6253 48.526C57.7266 48.2437 57.8608 47.9613 58.0283 47.6858C58.1869 47.3995 58.374 47.116 58.5956 46.8467C58.7047 46.7101 58.8274 46.5829 58.9486 46.4484C59.069 46.3128 59.1972 46.1811 59.334 46.0535C59.6059 45.7957 59.9227 45.5665 60.2436 45.3266C60.4544 45.6873 60.6264 46.0592 60.7534 46.4294C60.8771 46.7958 60.9587 47.1642 61.0016 47.5279C61.045 47.8917 61.0491 48.2502 61.0183 48.5963C60.9895 48.944 60.9064 49.2588 60.8038 49.5625C60.6978 49.8637 60.5621 50.1426 60.4013 50.3901C60.236 50.6329 60.0383 50.8345 59.8265 51.0017C59.6139 51.1671 59.383 51.2924 59.14 51.3685C58.8941 51.4405 58.6296 51.4547 58.3632 51.4174C58.4402 51.2686 58.5218 51.1039 58.6072 50.927C58.6925 50.7504 58.7714 50.5482 58.8563 50.3436C59.0219 49.9285 59.201 49.4874 59.3554 49.0143C59.506 48.5365 59.6484 48.0471 59.7743 47.5706C59.8909 47.0837 59.9827 46.6005 60.0593 46.158C59.9889 46.3737 59.916 46.5964 59.842 46.8233C59.8055 46.9387 59.7682 47.0551 59.7309 47.1724L59.6745 47.35L59.6124 47.5236C59.4449 47.9973 59.2751 48.4771 59.1119 48.939C58.9309 49.4029 58.757 49.8494 58.5988 50.2549C58.5587 50.3588 58.52 50.46 58.4821 50.5582C58.4421 50.6542 58.4033 50.7474 58.366 50.8369C58.2915 51.0186 58.222 51.1867 58.1594 51.3389C57.7261 51.0458 57.492 50.6179 57.4163 50.1296ZM50.9961 53.5946C51.0166 53.3338 51.0861 53.0773 51.1868 52.8059C51.2876 52.5346 51.4266 52.264 51.5992 52.0022C51.6854 51.8711 51.7801 51.742 51.8837 51.6164C51.935 51.5535 51.9887 51.491 52.0442 51.4299C52.0978 51.3647 52.1532 51.3001 52.2106 51.2367C52.4411 50.9827 52.7028 50.7429 52.9943 50.5242C53.1426 50.4189 53.2868 50.2981 53.444 50.1925C53.5998 50.0847 53.763 49.9825 53.9343 49.8871C54.2817 49.7042 54.6382 49.5111 55.0323 49.357C55.1643 49.7758 55.251 50.1931 55.2953 50.604C55.3393 51.0149 55.3421 51.4224 55.2962 51.7991C55.2524 52.1798 55.1699 52.5462 55.0532 52.8912C54.9371 53.2363 54.7902 53.5632 54.6041 53.8386C53.8815 54.9784 52.7 55.5693 51.6444 55.1469C51.7596 55.0117 51.8884 54.8731 52.0147 54.7026C52.1426 54.5352 52.2764 54.3552 52.4136 54.166C52.6864 53.7846 52.9803 53.3816 53.2476 52.9232C53.3828 52.6983 53.5172 52.47 53.6488 52.2416C53.7798 52.0137 53.9086 51.7862 54.0234 51.545C54.2571 51.0702 54.4721 50.6091 54.6535 50.1731C54.4045 50.5826 54.1389 51.0184 53.8707 51.4595L53.7682 51.6293L53.6613 51.7927C53.5895 51.9023 53.5177 52.0124 53.4464 52.1217C53.3012 52.3444 53.1575 52.5662 53.0157 52.7832C52.9443 52.8923 52.8754 53.0049 52.8025 53.1089C52.7298 53.2132 52.6575 53.3157 52.5867 53.4165C52.4434 53.622 52.3044 53.8203 52.1724 54.0095C52.0395 54.2021 51.9126 54.385 51.7946 54.5559C51.6728 54.7224 51.56 54.8768 51.4583 55.0164C51.0861 54.6082 50.9527 54.1116 50.9961 53.5946ZM43.3803 55.5255C43.4712 55.2673 43.6087 55.0154 43.7846 54.776C43.9605 54.5372 44.1709 54.2879 44.4148 54.0679C44.6582 53.8432 44.9351 53.6434 45.2368 53.4539C45.5358 53.2539 45.8623 53.0763 46.2138 52.928C46.3017 52.8905 46.3911 52.8551 46.4824 52.822C46.5724 52.7846 46.6631 52.7465 46.7559 52.7119C46.941 52.642 47.1328 52.5795 47.3305 52.5257C47.5275 52.4698 47.7336 52.4317 47.9403 52.3859C48.1469 52.338 48.3596 52.2993 48.5784 52.2704C48.6063 52.7312 48.5881 53.1795 48.5279 53.6101C48.4977 53.8251 48.4575 54.0374 48.4067 54.2414C48.3544 54.4414 48.2923 54.6364 48.2215 54.8252C48.0788 55.2025 47.8997 55.5557 47.6921 55.8784C47.5881 56.0389 47.4779 56.1958 47.3596 56.3368C47.2405 56.4746 47.1156 56.6037 46.9859 56.7239C46.7261 56.964 46.4477 57.1667 46.1606 57.3263C46.0174 57.4089 45.8701 57.4697 45.7222 57.5185C45.5743 57.5679 45.4256 57.6058 45.278 57.6317C44.9825 57.6833 44.6903 57.6857 44.4122 57.6337C44.1333 57.5764 43.8671 57.4517 43.6268 57.2764C43.7798 57.1715 43.9461 57.0537 44.1221 56.9257C44.2983 56.7979 44.4807 56.6414 44.6705 56.4859C44.8597 56.3279 45.0551 56.1619 45.2528 55.9894C45.4505 55.8172 45.651 55.6416 45.847 55.4419C46.2397 55.0497 46.6324 54.655 46.9952 54.2418C47.3553 53.8177 47.6907 53.3989 47.9874 53.0053C47.6343 53.3473 47.255 53.7243 46.8631 54.1162C46.4569 54.4928 46.0456 54.8735 45.6496 55.2406C44.8341 55.9531 44.0389 56.638 43.4703 57.094C43.2013 56.582 43.1987 56.0417 43.3803 55.5255ZM67.8277 6.3217C67.9052 6.17539 67.9587 6.00625 67.9896 5.81801C68.0161 5.63216 68.0133 5.43132 67.9887 5.21628C67.9364 4.78781 67.7858 4.30494 67.5325 3.8222C67.26 3.35326 66.8879 2.88167 66.4255 2.46155C65.8405 3.40672 65.6564 4.44436 65.7712 5.26086C65.8163 5.67992 65.9409 6.04525 66.1415 6.32449C66.2418 6.46431 66.3612 6.58237 66.4993 6.67483C66.6378 6.7673 66.7824 6.84264 66.9531 6.88257C66.9433 6.77194 66.9326 6.65029 66.9209 6.51923C66.906 6.39002 66.8901 6.25153 66.8737 6.10561C66.843 5.81005 66.809 5.48531 66.7744 5.14836C66.7194 4.45882 66.6098 3.74274 66.5422 3.08556C66.6242 3.41044 66.704 3.75481 66.7772 4.10051L66.8309 4.36026C66.8472 4.44714 66.8594 4.53735 66.8728 4.62464C66.8976 4.80027 66.9227 4.97498 66.947 5.14611C67.0362 5.82915 67.1019 6.44017 67.0963 6.88536C67.427 6.81293 67.6738 6.61395 67.8277 6.3217ZM70.4007 10.6466C70.6153 10.3501 70.7333 9.93737 70.7495 9.44814C70.7575 9.20365 70.7402 8.94073 70.696 8.66507C70.6852 8.59636 70.6727 8.52671 70.6577 8.45654C70.6409 8.38729 70.6213 8.31804 70.6008 8.24827C70.5588 8.10884 70.5102 7.96717 70.4548 7.82403C70.3438 7.53829 70.2053 7.24778 70.0392 6.95978C69.9977 6.88815 69.9547 6.81611 69.9095 6.74501C69.8619 6.67537 69.8111 6.60652 69.7593 6.5378C69.6553 6.40077 69.5447 6.26599 69.4272 6.13347C69.0353 6.61169 68.7625 7.12799 68.5741 7.64415C68.3791 8.16509 68.2811 8.6786 68.2787 9.14369C68.2755 9.37743 68.3063 9.59353 68.3422 9.80366C68.3795 10.0131 68.441 10.206 68.5273 10.3779C68.6995 10.7223 68.972 10.983 69.3432 11.1261C69.3507 10.6391 69.3829 9.94308 69.4254 9.16983C69.4426 8.39512 69.4612 7.56562 69.4776 6.83614C69.5279 7.20838 69.5508 7.61311 69.576 8.01081C69.5877 8.21072 69.5974 8.4105 69.6054 8.60803C69.6114 8.80542 69.6217 8.9979 69.6142 9.19397C69.5956 9.97226 69.5583 10.6651 69.4949 11.1498C69.8727 11.1248 70.1796 10.9462 70.4007 10.6466ZM72.9624 14.2823C73.0105 14.0151 73.046 13.7181 73.0319 13.411C73.017 13.1039 72.9741 12.779 72.9018 12.4439C72.8655 12.2766 72.8221 12.1066 72.7708 11.9352C72.7456 11.8496 72.7181 11.7636 72.6886 11.6773C72.6569 11.5917 72.6206 11.5076 72.5833 11.4226C72.434 11.0834 72.254 10.7427 72.0427 10.4104C71.03 11.3496 70.4897 12.5146 70.3022 13.5392C70.1567 14.5537 70.3634 15.4476 71.134 15.8831C71.1802 15.6178 71.2426 15.2957 71.3159 14.9343C71.3537 14.7525 71.3928 14.562 71.4339 14.3654C71.4544 14.2659 71.4759 14.1651 71.4974 14.0634C71.5145 13.9622 71.5319 13.8593 71.5496 13.7563C71.6871 12.9286 71.8724 12.0044 71.9791 11.2004C71.9773 11.4096 71.9722 11.6242 71.9648 11.8409C71.9568 12.0577 71.9307 12.2837 71.9111 12.5053C71.8682 12.9505 71.8155 13.3933 71.7581 13.8129C71.7339 14.0216 71.6867 14.2312 71.6494 14.4295C71.6098 14.6285 71.5697 14.8194 71.53 14.9993C71.4512 15.3598 71.3733 15.6777 71.3023 15.9361C72.1499 16.0105 72.7596 15.3585 72.9624 14.2823ZM74.4669 19.6831C74.8825 18.554 74.8297 16.8961 74.1225 15.3028C73.4975 15.7283 72.9825 16.2428 72.5837 16.779C72.3841 17.0472 72.2138 17.3214 72.0744 17.5949C71.9288 17.8698 71.801 18.1469 71.7124 18.4167C71.6224 18.6868 71.5636 18.9512 71.5393 19.205C71.5272 19.3319 71.5239 19.4562 71.5291 19.5773C71.5285 19.6993 71.5347 19.8185 71.5514 19.9338C71.6163 20.3948 71.8276 20.7967 72.2017 21.1006C72.3001 20.8213 72.426 20.4835 72.5703 20.1044C72.6434 19.9136 72.7203 19.7137 72.7997 19.5072C72.8832 19.2988 72.9466 19.0863 73.0245 18.8662C73.1789 18.4205 73.3379 17.9588 73.4952 17.5035C73.5371 17.3876 73.574 17.2727 73.6076 17.1592C73.6426 17.0448 73.6776 16.9311 73.7121 16.8188C73.783 16.5918 73.8521 16.3687 73.9192 16.1535C73.88 16.3817 73.8376 16.6154 73.7919 16.8511C73.7457 17.0869 73.7009 17.3237 73.6337 17.5639C73.5082 18.0424 73.3739 18.5165 73.2377 18.9638C73.2032 19.0751 73.1691 19.1852 73.1355 19.2941C73.0996 19.4026 73.0576 19.5101 73.0194 19.6149C72.941 19.8245 72.864 20.0249 72.7889 20.2137C72.6396 20.5915 72.4983 20.9229 72.3761 21.1906C73.2816 21.4207 74.0554 20.8221 74.4669 19.6831ZM73.9514 26.7843C74.3847 26.5659 74.7779 26.1475 75.0998 25.5717C75.4371 24.9966 75.6283 24.2637 75.7249 23.4378C75.745 23.2315 75.7711 23.019 75.7645 22.8031C75.7612 22.587 75.7496 22.3666 75.7295 22.143C75.709 21.9194 75.6801 21.6927 75.6418 21.4642C75.6231 21.35 75.6017 21.2354 75.5784 21.1204C75.5657 21.0632 75.5532 21.0056 75.5406 20.9479C75.5243 20.8909 75.5079 20.8336 75.4912 20.776C75.1292 20.9522 74.7807 21.1583 74.4608 21.3833C74.1412 21.6086 73.8497 21.8527 73.588 22.1076C73.3263 22.3627 73.0949 22.6288 72.8968 22.899C72.8468 22.9667 72.7992 23.0345 72.7535 23.1027C72.705 23.1709 72.6575 23.2394 72.6131 23.3079C72.5231 23.4451 72.4415 23.5826 72.3686 23.7201C72.2236 23.9948 72.1135 24.2686 72.0421 24.5371C72.0062 24.6713 71.9801 24.8041 71.9642 24.935C71.9452 25.0661 71.9283 25.1953 71.9264 25.322C71.9148 25.8289 72.072 26.2986 72.4177 26.6935C72.5749 26.4104 72.7684 26.0695 72.9909 25.6872C73.1029 25.4949 73.2209 25.2932 73.3426 25.0849C73.4663 24.8754 73.5744 24.6577 73.6972 24.4343C73.9421 23.9807 74.1958 23.511 74.4458 23.0476C74.6823 22.5719 74.9155 22.1027 75.1343 21.6634C74.9664 22.1438 74.7915 22.6434 74.5834 23.1372C74.3642 23.6317 74.1352 24.1195 73.9089 24.5775C73.7969 24.8066 73.6855 25.0283 73.56 25.2402C73.4387 25.452 73.3208 25.654 73.2069 25.8439C72.9765 26.2234 72.7764 26.555 72.5837 26.8198C73.0394 27.0228 73.5082 27.0029 73.9514 26.7843ZM73.2363 32.9205C73.4896 32.8455 73.7442 32.7156 73.9939 32.5349C74.1184 32.4446 74.2425 32.3415 74.3642 32.2263C74.4846 32.1111 74.5936 31.9817 74.7038 31.8419C75.138 31.2818 75.5434 30.5392 75.7645 29.6634C76.0197 28.7925 76.0859 27.7919 75.9968 26.7596C75.1492 27.0104 74.3749 27.3993 73.7312 27.852C73.5694 27.9654 73.4154 28.083 73.2699 28.2038C73.1239 28.3247 72.9877 28.449 72.8487 28.5747C72.5768 28.8268 72.3379 29.0889 72.1377 29.3562C72.0375 29.4898 71.9465 29.6247 71.8658 29.7603C71.8252 29.8282 71.7875 29.8962 71.752 29.9643C71.7128 30.032 71.6765 30.0996 71.6424 30.1674C71.5071 30.4384 71.4139 30.7106 71.3662 30.9804C71.2827 31.5221 71.3341 32.0451 71.62 32.5301C71.7352 32.3952 71.863 32.2465 71.9997 32.0863C72.1368 31.9257 72.2935 31.755 72.4391 31.57C72.7447 31.1964 73.08 30.7866 73.427 30.3616C74.1007 29.4947 74.8432 28.5274 75.4567 27.648C75.1963 28.1356 74.9254 28.6412 74.597 29.132C74.4384 29.3781 74.2774 29.6215 74.1165 29.8596C73.957 30.0979 73.7969 30.331 73.6216 30.5532C73.2801 30.9993 72.9484 31.4132 72.6439 31.7773C72.3224 32.1381 72.0244 32.4485 71.7767 32.6959C72.2287 33.0016 72.7298 33.0711 73.2363 32.9205ZM71.3028 39.1816C71.5869 39.1531 71.8835 39.0669 72.1867 38.9259C72.4862 38.7833 72.7773 38.5795 73.0707 38.3269C73.2168 38.2002 73.3614 38.0609 73.5045 37.9092C73.6449 37.757 73.7932 37.596 73.9173 37.4161C74.1743 37.0595 74.4173 36.6571 74.6371 36.2169C74.7518 35.9983 74.8404 35.7639 74.9272 35.5231C75.013 35.2821 75.0923 35.0328 75.1632 34.7767C75.3148 34.267 75.3881 33.7182 75.4319 33.1567C74.9576 33.2112 74.5014 33.3075 74.0694 33.435C73.6361 33.5623 73.2335 33.7222 72.837 33.8991C72.4456 34.0774 72.0832 34.2785 71.7548 34.4962C71.5911 34.6053 71.4353 34.7183 71.2892 34.8352C71.1418 34.9516 70.9927 35.0681 70.8593 35.1896C70.3181 35.6735 69.9491 36.2115 69.7215 36.7555C69.6138 37.0295 69.5559 37.3104 69.5517 37.5953C69.5462 37.8789 69.5769 38.1595 69.6786 38.4441C69.8289 38.3252 69.9944 38.1941 70.1725 38.0531C70.3503 37.9108 70.5318 37.7536 70.7305 37.5899C70.9301 37.4246 71.139 37.2514 71.3556 37.0724C71.4651 36.9817 71.5762 36.8897 71.689 36.7966C71.7972 36.7006 71.9064 36.6031 72.017 36.5049C72.2408 36.3059 72.4689 36.1032 72.698 35.8995C72.9285 35.6933 73.1691 35.4865 73.3865 35.2715C73.8404 34.8382 74.2872 34.4107 74.7056 34.0106C74.3339 34.4799 73.921 34.9591 73.5068 35.4267C73.08 35.8906 72.6206 36.3338 72.191 36.7478C71.2944 37.5638 70.4493 38.2382 69.805 38.6518C70.2188 39.0641 70.7342 39.2391 71.3028 39.1816ZM67.99 45.3205C68.5946 45.3776 69.3203 45.2095 70.0322 44.7877C70.2118 44.6841 70.3941 44.5667 70.576 44.4356C70.7562 44.3035 70.9465 44.1642 71.1157 43.9996C71.4619 43.6752 71.8028 43.2993 72.1275 42.8789C72.4424 42.4529 72.7218 41.9722 72.9816 41.4607C73.1154 41.2066 73.2199 40.9329 73.3221 40.6548C73.4233 40.3763 73.5157 40.0901 73.5973 39.7977C72.5735 39.7284 71.593 39.8442 70.7169 40.0731C70.2672 40.1824 69.8428 40.321 69.4515 40.4832C69.0573 40.6443 68.7098 40.8365 68.3693 41.0324C67.6995 41.4304 67.1976 41.9178 66.8454 42.442C66.6751 42.7076 66.5565 42.9919 66.4909 43.2894C66.4153 43.5801 66.3961 43.8868 66.4404 44.2066C66.7988 44.0155 67.2535 43.7988 67.7284 43.5292C67.9727 43.3964 68.2289 43.2568 68.4934 43.1129C68.6272 43.0398 68.7634 42.9658 68.9015 42.8911C69.0353 42.8119 69.1712 42.7322 69.3078 42.6516C70.4193 42.0116 71.6036 41.2586 72.6486 40.5559C72.5287 40.663 72.4126 40.773 72.2842 40.8783C72.156 40.9822 72.0263 41.0871 71.8947 41.1931C71.6327 41.4029 71.3653 41.6111 71.0971 41.8155C70.8341 42.0227 70.5453 42.2128 70.2672 42.4011C69.9879 42.5885 69.7107 42.7698 69.4398 42.9431C69.3721 42.9858 69.305 43.0286 69.2377 43.0711C69.1682 43.1114 69.0989 43.1515 69.0303 43.1913C68.8926 43.269 68.7569 43.3458 68.624 43.4216C68.3572 43.5703 68.1001 43.7098 67.8566 43.8382C67.616 43.9696 67.3743 44.0803 67.1508 44.1808C66.9274 44.2813 66.7203 44.3707 66.5332 44.4481C66.8799 44.9697 67.3827 45.2624 67.99 45.3205ZM63.1878 51.0302C63.8026 51.2187 64.5835 51.1858 65.4408 50.9172C65.8597 50.7735 66.2977 50.5724 66.7432 50.3166C66.8542 50.2526 66.9667 50.186 67.0776 50.1139C67.1853 50.0396 67.2936 49.9618 67.4018 49.8807C67.6178 49.7183 67.8338 49.5427 68.0474 49.3546C68.4845 48.9852 68.8749 48.5335 69.2547 48.0475C69.6427 47.5673 69.9636 47.0104 70.2607 46.4297C69.7342 46.2877 69.2079 46.1967 68.6943 46.1484C68.179 46.099 67.684 46.0982 67.1877 46.1158C66.2011 46.1569 65.3191 46.3533 64.5304 46.6226C62.9933 47.1979 61.9196 48.1381 61.8258 49.5255C62.2386 49.4018 62.7456 49.2592 63.3203 49.0999C63.8852 48.9316 64.5023 48.7305 65.1642 48.5239C65.8088 48.3016 66.4838 48.0591 67.1616 47.8129C67.8188 47.5497 68.4882 47.2889 69.1128 47.0321C68.8175 47.2074 68.4984 47.3721 68.1827 47.5399C67.8637 47.7056 67.545 47.8726 67.2172 48.0275C66.8827 48.1776 66.5482 48.3229 66.2179 48.4622C65.8854 48.5994 65.5663 48.7396 65.2324 48.8513C64.9035 48.9675 64.5829 49.0764 64.2752 49.1776C64.1213 49.227 63.9701 49.2755 63.8218 49.323C63.6748 49.3703 63.5227 49.4066 63.3796 49.4456C62.8011 49.5971 62.2894 49.7183 61.8678 49.8013C62.1047 50.4149 62.5679 50.838 63.1878 51.0302ZM56.8179 55.8868C57.1164 56.0593 57.47 56.1836 57.8712 56.2563C58.2751 56.3347 58.7127 56.3405 59.1856 56.2926C59.4225 56.2689 59.6679 56.2315 59.9203 56.1805C60.0467 56.1547 60.1745 56.1259 60.3042 56.0933C60.432 56.0586 60.5589 56.0166 60.6885 55.9731C60.9464 55.8851 61.2101 55.7832 61.4764 55.667C61.6093 55.6093 61.7437 55.5479 61.878 55.483C61.9451 55.4497 62.0119 55.4165 62.08 55.3829C62.1453 55.3455 62.2111 55.3081 62.2769 55.2704C62.5394 55.1165 62.8035 54.9495 63.0656 54.7686C63.3268 54.5862 63.5946 54.3996 63.8395 54.1773C64.0881 53.9599 64.3339 53.7297 64.5736 53.4872C64.6931 53.3663 64.812 53.2421 64.9286 53.115C65.0406 52.9829 65.1502 52.8474 65.2585 52.7095C64.7426 52.446 64.2275 52.2484 63.6962 52.0755C63.1682 51.907 62.6431 51.7841 62.1322 51.7026C61.8771 51.6622 61.6252 51.632 61.3784 51.612C61.1289 51.5888 60.8789 51.5698 60.6382 51.564C60.1544 51.5505 59.6937 51.5763 59.2649 51.6408C58.8246 51.6911 58.415 51.779 58.0432 51.9074C57.8558 51.9693 57.6841 52.05 57.5115 52.1247C57.3399 52.2011 57.1785 52.2878 57.0278 52.3849C56.7255 52.5767 56.4718 52.8185 56.2581 53.0871C56.0421 53.351 55.876 53.6588 55.7674 54.0099C55.9992 53.9986 56.2553 53.986 56.5311 53.9729C56.669 53.966 56.8155 53.9627 56.9629 53.9531C57.1099 53.9418 57.2615 53.9307 57.4169 53.9188C58.0382 53.8686 58.7477 53.8349 59.465 53.7443C59.8316 53.7035 60.2043 53.6617 60.5789 53.62C60.9563 53.5748 61.3271 53.512 61.7064 53.4573C62.0828 53.3993 62.4658 53.347 62.8356 53.2828C63.2061 53.2145 63.5685 53.1476 63.9197 53.0828C63.5685 53.1968 63.2083 53.3089 62.844 53.4169C62.4714 53.5151 62.0916 53.6061 61.7148 53.694C60.968 53.8798 60.1899 53.9973 59.4637 54.1049C59.2807 54.1297 59.1049 54.1599 58.924 54.1758C58.7443 54.1922 58.5675 54.2082 58.3931 54.2241C58.046 54.2533 57.7139 54.2771 57.401 54.2958C57.0907 54.3195 56.7843 54.3138 56.5072 54.3151C56.2292 54.3145 55.9736 54.3094 55.7441 54.3012C55.8481 55.0028 56.2208 55.5421 56.8179 55.8868ZM48.9077 59.3952C49.4319 59.8972 50.2478 60.2795 51.2507 60.4062C51.7522 60.4734 52.3105 60.5091 52.8884 60.4473C53.179 60.4212 53.4785 60.3814 53.785 60.3284C53.938 60.3016 54.0933 60.2723 54.2491 60.2381C54.4026 60.1983 54.5579 60.1552 54.7142 60.1086C55.3365 59.9179 55.988 59.6937 56.6103 59.3558C56.9243 59.1932 57.2378 59.0158 57.5483 58.8253C57.8571 58.6307 58.1528 58.4053 58.4482 58.1757C57.9789 57.7845 57.4864 57.4459 56.9858 57.156C56.4871 56.8678 55.967 56.6037 55.4591 56.398C55.2044 56.2933 54.9507 56.2006 54.7001 56.1191C54.4492 56.0379 54.2015 55.9694 53.9515 55.8991C53.4538 55.7652 52.9715 55.677 52.5125 55.6359C52.2844 55.6195 52.0548 55.5974 51.8338 55.5921C51.6122 55.5862 51.3977 55.5928 51.1895 55.6113C50.982 55.63 50.7814 55.6613 50.5883 55.7054C50.3934 55.7421 50.2044 55.7887 50.0253 55.8501C49.6662 55.9714 49.3419 56.1496 49.056 56.3775C48.7663 56.5928 48.5167 56.8652 48.3153 57.1974C48.7938 57.2853 49.3839 57.4225 50.036 57.522C50.3677 57.5779 50.7147 57.6367 51.0744 57.6976C51.2568 57.7308 51.4396 57.756 51.6253 57.7787C51.8127 57.8032 52.0021 57.8276 52.1935 57.8524C52.5774 57.9006 52.9756 57.9563 53.3759 57.9994C53.7779 58.0348 54.1814 58.0701 54.5821 58.1054C54.7865 58.1228 54.9899 58.14 55.1919 58.1574C55.3952 58.1753 55.592 58.1798 55.7916 58.1913C56.1932 58.2114 56.587 58.231 56.9676 58.2501C56.1798 58.3115 55.3639 58.3703 54.5303 58.3509C54.1162 58.3459 53.7075 58.3442 53.3003 58.3217C52.8903 58.2935 52.4877 58.2606 52.0978 58.224C51.9042 58.2046 51.7125 58.1855 51.5226 58.1665C51.3338 58.1431 51.1452 58.1121 50.9629 58.0843C50.5972 58.0272 50.2482 57.9678 49.9204 57.9081C49.5943 57.8533 49.2817 57.7767 48.9953 57.7046C48.709 57.633 48.4477 57.5627 48.2141 57.4958C48.1384 58.2412 48.3816 58.8899 48.9077 59.3952ZM39.644 60.9369C39.8439 61.2643 40.1254 61.5734 40.482 61.8569C40.6606 61.9988 40.8577 62.1344 41.0725 62.2624C41.2871 62.3935 41.5187 62.4951 41.7672 62.5992C42.0154 62.7008 42.2798 62.7932 42.5591 62.8761C42.6985 62.9172 42.842 62.9562 42.9887 62.9922C43.0623 63.0095 43.1366 63.0269 43.2112 63.0446C43.2861 63.0574 43.3619 63.07 43.4379 63.0832C43.7433 63.1318 44.0617 63.1691 44.391 63.1943C44.5557 63.2068 44.7231 63.2164 44.8925 63.2228C45.0626 63.2299 45.2347 63.2337 45.4073 63.2232C46.7932 63.1744 48.3171 62.8799 49.7752 62.2194C49.3965 61.6984 48.98 61.2267 48.543 60.8009C48.1026 60.3621 47.6421 59.9698 47.1753 59.6252C46.942 59.453 46.7069 59.2927 46.4715 59.145C46.237 59.0004 45.9977 58.8461 45.7613 58.7165C45.288 58.4502 44.8188 58.2382 44.3601 58.0739C43.8981 57.8919 43.4474 57.7641 43.0128 57.6953C42.9041 57.6779 42.7964 57.6644 42.69 57.6544C42.5833 57.6429 42.4769 57.6287 42.372 57.6219C42.1623 57.6065 41.9571 57.6065 41.7569 57.6223C40.9579 57.7032 40.2342 57.9601 39.6379 58.5385C39.8725 58.6506 40.1309 58.7739 40.409 58.907C40.5498 58.9752 40.6955 59.0462 40.8454 59.1193C40.9211 59.1556 40.9974 59.1929 41.0751 59.2303C41.1529 59.2649 41.232 59.3 41.3117 59.3353C41.636 59.4789 41.9758 59.6294 42.3266 59.7848C42.5055 59.864 42.6869 59.9441 42.8707 60.0253C43.0558 60.0993 43.2437 60.174 43.4327 60.2494C43.8187 60.4013 44.2117 60.5557 44.6064 60.7109C44.8068 60.7927 45.007 60.8589 45.2089 60.9296C45.4119 61 45.6151 61.0699 45.8173 61.1402C46.0222 61.2105 46.2265 61.2808 46.4293 61.3504C46.6334 61.4203 46.838 61.4926 47.0386 61.5505C47.4462 61.6737 47.846 61.795 48.2323 61.9117C47.8184 61.8435 47.3968 61.7682 46.9738 61.6866C46.5493 61.5976 46.1197 61.4849 45.696 61.3768C44.8505 61.1731 44.0116 60.8757 43.2334 60.6033C43.1366 60.5683 43.0401 60.5337 42.9443 60.499C42.8484 60.46 42.7534 60.4209 42.6592 60.3822C42.4728 60.3038 42.2888 60.2263 42.1078 60.1499C41.7488 59.9961 41.4079 59.8447 41.0888 59.6979C40.449 59.3749 39.896 59.0727 39.4543 58.8139C39.1733 59.5571 39.2439 60.2831 39.644 60.9371V60.9369ZM65.1101 2.57312C65.0667 2.37599 64.9875 2.17395 64.8755 1.97218C64.7631 1.77148 64.6245 1.56559 64.4398 1.38439C64.0764 1.0164 63.6095 0.670167 63.0596 0.420243C62.497 0.182789 61.8663 0.0270512 61.212 0.00012207C61.3076 0.662738 61.4964 1.26035 61.7498 1.77148C61.9904 2.2952 62.2824 2.74822 62.6216 3.08835C62.7942 3.25576 62.9578 3.41415 63.1342 3.53686C63.3101 3.6605 63.4925 3.75428 63.6776 3.8157C64.0475 3.93788 64.4295 3.92952 64.784 3.75521C64.6021 3.56803 64.388 3.33708 64.1543 3.07721C64.0382 2.94667 63.9169 2.80964 63.7914 2.66783C63.7281 2.59726 63.6673 2.52244 63.6002 2.45174C63.533 2.38116 63.4649 2.31006 63.3963 2.23803C63.1216 1.94897 62.8403 1.64651 62.5661 1.34353C62.4327 1.18832 62.2829 1.05129 62.1458 0.907223C62.0072 0.763557 61.8719 0.622809 61.7409 0.486571C61.8878 0.606492 62.0394 0.730127 62.1943 0.856018C62.3464 0.985225 62.5091 1.10979 62.6542 1.25385C62.9523 1.53495 63.2508 1.82401 63.5363 2.10564C63.6077 2.17621 63.6781 2.24599 63.7476 2.31523C63.8166 2.38541 63.8787 2.45916 63.943 2.52987C64.0689 2.67301 64.1908 2.81097 64.3069 2.94296C64.5378 3.20787 64.7426 3.44997 64.9068 3.65254C65.1381 3.34026 65.1968 2.96763 65.1101 2.57312Z" fill="#A6744E"/>
</g>
<mask id="mask2_113_2463" style="mask-type:luminance" maskUnits="userSpaceOnUse" x="13" y="1" width="49" height="50">
<path d="M13.9062 1.80298H61.934V50.6999H13.9062V1.80298Z" fill="white"/>
</mask>
<g mask="url(#mask2_113_2463)">
<path d="M14.782 37.8339C20.9178 41.2698 28.689 41.0778 34.7717 37.8339C35.2745 37.5309 28.1263 36.7446 24.7438 36.7446C18.6994 36.7446 14.6721 37.3446 14.782 37.8339Z" fill="#A1683D"/>
<path d="M29.107 46.2874C29.107 46.2874 29.0513 45.3433 30.4917 45.3229C31.9322 45.3025 44.5232 45.3229 45.4631 45.3229C46.403 45.3229 46.6371 45.9652 46.629 46.2917C46.6091 47.094 40.1326 48.7664 40.1305 48.7314L31.5491 48.0444C30.7351 47.4587 29.5825 47.4707 29.107 46.2874Z" fill="#A1683D"/>
<path d="M29.113 46.1769V48.0114C29.051 49.947 46.6275 50.0426 46.6232 48.0114V46.1769C46.64 48.2188 29.0777 48.222 29.113 46.1769Z" fill="#A1683D"/>
<path d="M30.2565 44.9169C30.2796 44.5825 32.6274 43.7154 37.6283 43.7154C42.6562 43.7154 45.4803 44.4057 45.4803 44.9421C45.4803 45.072 43.9345 46.1256 43.9345 46.1256L37.4692 46.7462L30.3539 45.5916L30.2565 44.9169Z" fill="#A1683D"/>
<path d="M30.2585 44.8699V46.2006C30.2864 47.4209 45.4812 47.5922 45.4775 46.2006V44.8699C45.4716 46.1878 30.2684 46.1696 30.2585 44.8699Z" fill="#A1683D"/>
<path d="M41.2854 45.0039C41.2854 45.0039 39.1369 44.778 38.6281 44.4391C38.1193 44.1002 38.2323 44.072 37.7093 44.072C37.1864 44.072 37.2994 44.1002 36.7906 44.4391C36.2817 44.778 34.1333 45.0039 34.1333 45.0039" fill="#A1683D"/>
<path d="M36.0211 42.9963L39.715 43.002C39.7422 43.1461 38.5373 44.2063 38.1453 44.1856L37.3885 44.1811C36.9439 44.1951 36.0169 43.0558 36.0211 42.9963Z" fill="#A1683D"/>
<mask id="mask3_113_2463" style="mask-type:luminance" maskUnits="userSpaceOnUse" x="22" y="6" width="32" height="8">
<path d="M22.6089 6.90527H53.0089V13.6352H22.6089V6.90527Z" fill="white"/>
</mask>
<g mask="url(#mask3_113_2463)">
<g opacity="0.75">
<path d="M37.8151 7.13428C37.7554 7.13428 37.6951 7.137 37.6384 7.14134C37.571 7.14649 37.5095 7.15886 37.4476 7.16958C37.0786 7.23346 36.8186 7.38604 36.8186 7.57199V8.55335C35.7023 7.90667 34.3223 7.55789 33.3344 7.55789C32.0151 7.55789 31.3281 7.71339 29.7442 8.58866C28.4271 9.31647 28.0629 9.6285 27.1434 9.42883C26.2238 9.22913 25.7856 8.75549 25.3058 8.59574C24.8261 8.43598 24.1071 8.9508 24.062 9.10406C24.012 9.2738 23.8546 9.06149 23.8146 8.94168C23.7746 8.82187 22.87 9.33524 22.91 9.65474C22.95 9.97424 23.7278 10.8499 23.8429 10.4737C23.9528 10.1143 24.1058 10.0798 24.2457 10.2195C24.3871 10.3607 24.9078 10.6488 24.9878 11.208C25.0677 11.7671 24.7848 11.9255 24.5849 11.7657C24.385 11.606 24.3069 11.5301 24.2669 11.3703C24.2269 11.2106 23.3908 11.6106 23.5107 11.7304C23.6306 11.8502 23.8669 12.6037 24.1468 12.6835C24.4266 12.7634 24.4295 13.1239 24.4295 13.2836C24.4295 13.4434 24.91 13.4083 24.91 13.3684C24.91 13.3284 24.9454 12.8036 24.9454 12.8036C24.9454 12.8036 25.8688 12.7262 25.8288 11.568C25.7888 10.4098 25.1461 10.0523 25.426 9.97245C25.7058 9.89258 27.103 10.6103 28.3024 10.6502C29.5018 10.6902 31.126 9.49237 33.2849 9.49237C34.8868 9.49237 36.2295 10.2363 36.8186 10.622V11.0103C36.8186 11.1963 37.0786 11.3488 37.4476 11.4127C37.5095 11.4234 37.571 11.4358 37.6384 11.4409C37.6951 11.4453 37.7554 11.448 37.8151 11.448C37.8246 11.4481 37.8339 11.448 37.8434 11.448H37.8929C37.9699 11.448 38.0469 11.4481 38.119 11.4409C38.5747 11.4004 38.9176 11.2232 38.9176 11.0103V10.622C39.5069 10.2363 40.8495 9.49237 42.4513 9.49237C44.6102 9.49237 46.2345 10.6902 47.4338 10.6502C48.6332 10.6103 50.0303 9.89256 50.3103 9.97245C50.5901 10.0523 49.9474 10.4098 49.9075 11.568C49.8675 12.7262 50.7909 12.8036 50.7909 12.8036C50.7909 12.8036 50.8262 13.3284 50.8262 13.3684C50.8262 13.4083 51.3068 13.4434 51.3068 13.2836C51.3068 13.1239 51.3096 12.7634 51.5895 12.6835C51.8693 12.6037 52.1056 11.8502 52.2256 11.7304C52.3455 11.6106 51.5093 11.2106 51.4693 11.3703C51.4294 11.5301 51.3512 11.606 51.1513 11.7657C50.9514 11.9255 50.6685 11.7671 50.7485 11.208C50.8284 10.6488 51.3492 10.3607 51.4905 10.2195C51.6305 10.0798 51.7764 10.1143 51.8863 10.4737C52.0014 10.8499 52.7863 9.97424 52.8263 9.65474C52.8663 9.33524 51.9616 8.82185 51.9216 8.94168C51.8817 9.06149 51.7243 9.27379 51.6743 9.10406C51.6291 8.9508 50.9102 8.43599 50.4304 8.59574C49.9507 8.75549 49.5124 9.22913 48.5929 9.42882C47.6734 9.62851 47.3092 9.31648 45.9921 8.58866C44.4081 7.7134 43.714 7.55789 42.3948 7.55789C41.4069 7.55789 40.034 7.90669 38.9177 8.55335V7.57199C38.9177 7.35903 38.5748 7.18185 38.1191 7.14134C38.1121 7.14073 38.1049 7.1419 38.0979 7.14134C38.0416 7.13634 37.9805 7.13499 37.9212 7.13428L37.8151 7.13428Z" fill="#A1683D"/>
<path d="M24.7827 9.17251C24.7827 9.17251 26.3219 10.0112 27.841 10.0112C29.3602 10.0112 31.1194 8.53351 33.1582 8.53351C34.9179 8.53351 36.4642 9.59491 37.3606 10.154" fill="#A1683D"/>
<path d="M50.9531 9.17251C50.9531 9.17251 49.4139 10.0112 47.8948 10.0112C46.3756 10.0112 44.6164 8.53351 42.5776 8.53351C40.8179 8.53351 39.2717 9.59491 38.3752 10.154" fill="#A1683D"/>
</g>
</g>
<path d="M37.0886 7.24443V6.43662C37.6506 6.19251 38.086 5.89245 38.6478 6.43662V7.16573L37.0886 7.24443Z" fill="#A1683D"/>
<path d="M37.8144 7.05421C37.7525 7.05421 37.6899 7.05704 37.631 7.06153C37.5611 7.06687 37.4972 7.07971 37.4329 7.09081C37.0499 7.15707 36.78 7.31529 36.78 7.50813V11.0736C36.78 11.2665 37.0499 11.4247 37.4329 11.4909C37.4972 11.502 37.5611 11.5149 37.631 11.5202C37.6899 11.5247 37.7525 11.5275 37.8144 11.5275C37.8243 11.5277 37.8339 11.5275 37.8438 11.5275H37.8951C37.9751 11.5275 38.0551 11.5276 38.1299 11.5202C38.6029 11.4782 38.9589 11.2944 38.9589 11.0736V7.50813C38.9589 7.28728 38.6029 7.10355 38.1299 7.06152C38.1227 7.06089 38.1151 7.06211 38.1079 7.06152C38.0494 7.05634 37.986 7.05494 37.9245 7.0542L37.8144 7.05421Z" fill="#A1683D"/>
<path d="M36.9238 43.0362V12.29L38.8129 12.2795L38.8029 43.2444L36.9238 43.0358V43.0362Z" fill="#A1683D"/>
<path d="M36.0211 42.9938L39.715 42.9882C39.7422 42.8441 38.5373 41.7839 38.1453 41.8045L37.3885 41.809C36.9439 41.7951 36.0169 42.9344 36.0211 42.9938Z" fill="#A1683D"/>
<path d="M36.8784 12.3238H38.8574C38.8574 12.3238 38.5008 11.7903 37.8419 11.7903C37.1829 11.7903 36.8784 12.2974 36.8784 12.3238Z" fill="#A1683D"/>
<path d="M36.8784 11.2415H38.8574C38.8574 11.2415 38.5008 10.6743 37.8419 10.6743C37.1829 10.6743 36.8784 11.2135 36.8784 11.2415Z" fill="#A1683D"/>
<path d="M36.8784 12.376H38.8574C38.8574 12.376 38.5008 12.9432 37.8419 12.9432C37.1829 12.9432 36.8784 12.4041 36.8784 12.376Z" fill="#A1683D"/>
<path d="M37.3252 5.23895V5.83907C37.3252 5.83907 37.2878 5.8583 37.2828 5.86025C37.2814 5.86079 37.2704 5.85957 37.2687 5.86025C37.0358 5.90152 36.7097 5.98264 36.6043 6.10029C36.5621 6.14745 36.5732 6.17919 36.6043 6.22031C36.6664 6.30236 37.2133 6.55921 37.827 6.55921C37.8384 6.55921 37.8508 6.55946 37.8623 6.55921C37.8762 6.55961 37.891 6.55921 37.9047 6.55921C38.5184 6.55921 39.0636 6.3024 39.1274 6.22031C39.178 6.15515 39.1623 6.14337 39.1274 6.10029C39.0613 6.01889 38.6944 5.90103 38.4631 5.86025C38.4621 5.8599 38.4568 5.86055 38.456 5.86025C38.4496 5.85774 38.4065 5.83907 38.4065 5.83907V5.23895H37.3252Z" fill="#A1683D"/>
<path d="M39.1721 4.29392C39.1721 4.46664 39.139 4.63278 39.0728 4.79236C39.0067 4.95193 38.9125 5.09278 38.7902 5.21491C38.6679 5.33704 38.527 5.43115 38.3672 5.49725C38.2075 5.56334 38.0412 5.59639 37.8683 5.59639C37.6954 5.59639 37.5291 5.56334 37.3693 5.49725C37.2096 5.43115 37.0686 5.33704 36.9463 5.21491C36.8241 5.09278 36.7299 4.95193 36.6637 4.79236C36.5975 4.63278 36.5645 4.46664 36.5645 4.29392C36.5645 4.1212 36.5975 3.95506 36.6637 3.79549C36.7299 3.63592 36.8241 3.49507 36.9463 3.37294C37.0686 3.25081 37.2096 3.1567 37.3693 3.0906C37.5291 3.0245 37.6954 2.99146 37.8683 2.99146C38.0412 2.99146 38.2075 3.0245 38.3672 3.0906C38.527 3.1567 38.668 3.25081 38.7902 3.37294C38.9125 3.49507 39.0067 3.63592 39.0728 3.79549C39.139 3.95506 39.1721 4.1212 39.1721 4.29392Z" fill="#A1683D"/>
<path d="M50.8628 11.7731C50.8197 12.1543 50.8119 12.5356 50.8628 12.9168C50.8628 12.9168 50.1419 12.9068 50.1419 13.0721C50.1419 13.2375 50.2322 16.2321 49.9723 16.5316C49.7125 16.8311 49.5481 16.769 49.4281 16.6093C49.3082 16.4495 48.9522 16.4729 48.9122 16.5528C48.8722 16.6326 48.7846 17.1223 49.0394 17.287C49.3951 17.5169 50.2811 17.5103 50.361 16.6516C50.441 15.793 50.4387 15.0561 50.771 15.0561C50.8909 15.0561 50.884 15.4652 50.884 15.9244C50.884 16.3837 50.8438 16.5024 50.7639 16.6022C50.6839 16.7021 50.7039 17.6612 50.7639 17.6612H51.3646C51.4246 17.6612 51.4446 16.702 51.3646 16.6022C51.2847 16.5024 51.2445 16.3837 51.2445 15.9244C51.2445 15.4652 51.1882 15.0561 51.3081 15.0561C51.6686 15.0561 51.6239 15.7153 51.7039 16.574C51.7838 17.4326 52.6115 17.4551 53.0113 17.3153C53.4111 17.1755 53.2171 16.5992 53.1809 16.5175C53.1268 16.3953 52.891 16.4989 52.7428 16.5881C52.5715 16.6911 52.4019 16.81 52.142 16.5104C51.8822 16.2109 51.8593 13.2376 51.8593 13.0721C51.8593 12.9068 51.2021 12.9168 51.2021 12.9168C51.1855 12.5356 51.1316 12.1543 51.2021 11.7731C51.0303 11.8669 50.9418 11.8275 50.8628 11.7731ZM51.0466 13.1498C51.2384 13.1498 51.3929 13.1835 51.3929 13.2274V13.764C51.3929 13.8079 51.2384 13.8417 51.0466 13.8417C50.8547 13.8417 50.7003 13.8079 50.7003 13.764V13.2274C50.7003 13.1835 50.8547 13.1498 51.0466 13.1498Z" fill="#A1683D"/>
<path d="M41.2146 37.8339C47.3505 41.2698 55.1216 41.0778 61.2043 37.8339C61.7071 37.5309 54.5589 36.7446 51.1764 36.7446C45.1321 36.7446 41.1047 37.3446 41.2146 37.8339Z" fill="#A1683D"/>
<path d="M51.7456 16.6385C53.3538 18.257 50.375 17.6058 50.2691 17.9189L50.1086 40.2427" fill="#A1683D"/>
<path d="M24.876 11.7731C24.9191 12.1543 24.9269 12.5356 24.876 12.9168C24.876 12.9168 25.5968 12.9068 25.5968 13.0721C25.5968 13.2375 25.5066 16.2321 25.7664 16.5316C26.0263 16.8311 26.1907 16.769 26.3106 16.6093C26.4306 16.4495 26.7866 16.4729 26.8266 16.5528C26.8665 16.6326 26.9542 17.1223 26.6993 17.287C26.3437 17.5169 25.4577 17.5103 25.3777 16.6516C25.2978 15.793 25.3001 15.0561 24.9678 15.0561C24.8479 15.0561 24.8547 15.4652 24.8547 15.9244C24.8547 16.3837 24.8949 16.5024 24.9749 16.6022C25.0548 16.7021 25.0348 17.6612 24.9749 17.6612H24.3741C24.3142 17.6612 24.2942 16.702 24.3741 16.6022C24.4541 16.5024 24.4943 16.3837 24.4943 15.9244C24.4943 15.4652 24.5506 15.0561 24.4307 15.0561C24.0702 15.0561 24.1149 15.7153 24.0349 16.574C23.955 17.4326 23.1272 17.4551 22.7274 17.3153C22.3277 17.1755 22.5217 16.5992 22.5578 16.5175C22.6119 16.3953 22.8478 16.4989 22.996 16.5881C23.1673 16.6911 23.3369 16.81 23.5967 16.5104C23.8566 16.2109 23.8794 13.2376 23.8794 13.0721C23.8794 12.9068 24.5367 12.9168 24.5367 12.9168C24.5533 12.5356 24.6071 12.1543 24.5367 11.7731C24.7085 11.8669 24.7969 11.8275 24.876 11.7731ZM24.6922 13.1498C24.5003 13.1498 24.3459 13.1835 24.3459 13.2274V13.764C24.3459 13.8079 24.5003 13.8417 24.6922 13.8417C24.884 13.8417 25.0385 13.8079 25.0385 13.764V13.2274C25.0385 13.1835 24.884 13.1498 24.6922 13.1498Z" fill="#A1683D"/>
<path d="M41.2146 37.8104C47.9101 40.767 55.1216 40.1758 61.2043 37.8104C61.0674 38.5009 57.6313 42.737 50.9366 42.7368C44.3327 42.7366 41.2148 38.2898 41.2148 37.8104H41.2146Z" fill="#A1683D"/>
<path d="M23.6013 16.56C21.8141 18.1785 25.1247 17.5273 25.2423 17.8404L25.4207 40.1641" fill="#A1683D"/>
<path d="M14.8606 37.8104C21.5561 40.767 28.7676 40.1758 34.8503 37.8104C34.7134 38.5009 31.2776 42.737 24.5826 42.7368C17.9787 42.7366 14.8608 38.2898 14.8608 37.8104H14.8606Z" fill="#A1683D"/>
<path d="M24.5428 11.632C24.4996 12.0132 24.4918 12.3945 24.5428 12.7757C24.5428 12.7757 23.8219 12.7657 23.8219 12.931C23.8219 13.0964 23.9121 16.091 23.6523 16.3905C23.3924 16.69 23.228 16.6279 23.1081 16.4682C22.9881 16.3084 22.6321 16.3318 22.5921 16.4117C22.5522 16.4916 22.4645 16.9812 22.7194 17.1459C23.075 17.3758 23.961 17.3692 24.041 16.5105C24.1209 15.6519 24.1186 14.9149 24.4509 14.9149C24.5708 14.9149 24.564 15.3241 24.564 15.7833C24.564 16.2426 24.5238 16.3613 24.4438 16.4611C24.3639 16.5609 24.3839 17.5201 24.4438 17.5201H25.0446C25.1045 17.5201 25.1245 16.561 25.0446 16.4611C24.9646 16.3613 24.9244 16.2426 24.9244 15.7833C24.9244 15.3241 24.8681 14.9149 24.988 14.9149C25.3485 14.9149 25.3038 15.5742 25.3838 16.4329C25.4637 17.2915 26.2915 17.3139 26.6913 17.1742C27.091 17.0344 26.897 16.4581 26.8609 16.3764C26.8068 16.2541 26.5709 16.3578 26.4227 16.447C26.2514 16.55 26.0818 16.6688 25.822 16.3693C25.5621 16.0698 25.5393 13.0965 25.5393 12.931C25.5393 12.7657 24.882 12.7757 24.882 12.7757C24.8654 12.3944 24.8116 12.0132 24.882 11.632C24.7102 11.7258 24.6218 11.6864 24.5428 11.632ZM24.7265 13.0087C24.9184 13.0087 25.0728 13.0425 25.0728 13.0864V13.6229C25.0728 13.6668 24.9184 13.7006 24.7265 13.7006C24.5347 13.7006 24.3802 13.6668 24.3802 13.6229V13.0864C24.3802 13.0425 24.5347 13.0087 24.7265 13.0087Z" fill="#A1683D"/>
<path d="M22.4337 16.8229C19.969 17.2941 23.6029 18.5138 23.5985 18.8569L14.9192 38.8589" fill="#A1683D"/>
<path d="M48.9435 16.5814C46.5445 17.0935 50.0597 18.2406 50.0516 18.5817L41.3946 38.611" fill="#A1683D"/>
<path d="M25.4327 17.2921C23.9401 19.7352 27.4702 17.4317 27.7053 17.6682L35.1867 38.7149" fill="#A1683D"/>
<path d="M51.8684 17.1986C50.3796 19.6561 53.91 17.3467 54.1461 17.586L61.6977 38.8288" fill="#A1683D"/>
</g>
</svg>
